M48
;GenerationSoftware,Autodesk,EAGLE,9.6.2*%
;CreationDate,2021-10-28T23:15:20Z*%
FMAT,2
ICI,OFF
METRIC,TZ,000.000
T6C0.350
T5C0.800
T4C0.889
T3C1.000
T2C1.016
T1C3.200
%
G90
M71
T1
X48260Y63500
X48260Y43180
X5080Y43180
X5080Y63500
T2
X19050Y3810
X38100Y3810
X31750Y6350
X31750Y3810
X25400Y6350
X25400Y3810
X19050Y6350
X38100Y6350
X12700Y3810
X12700Y6350
T3
X6350Y25400
X3810Y27940
X3810Y25400
X3810Y22860
X3810Y20320
X3810Y17780
X3810Y15240
X3810Y12700
X6350Y35560
X6350Y33020
X6350Y30480
X6350Y27940
X6350Y22860
X6350Y20320
X6350Y17780
X6350Y15240
X6350Y12700
X46990Y12700
X46990Y15240
X46990Y17780
X46990Y20320
X46990Y22860
X46990Y25400
X46990Y27940
X46990Y30480
X46990Y35560
X49530Y12700
X49530Y15240
X49530Y17780
X49530Y20320
X49530Y22860
X49530Y25400
X49530Y27940
X49530Y30480
X49530Y33020
X49530Y35560
X46990Y33020
X3810Y30480
X3810Y35560
X3810Y33020
T4
X34290Y64770
X26670Y41910
X29210Y41910
X31750Y41910
X34290Y41910
X39370Y41910
X44450Y64770
X41910Y64770
X39370Y64770
X36830Y64770
X36830Y41910
X31750Y64770
X29210Y64770
X26670Y64770
X24130Y64770
X21590Y64770
X19050Y64770
X16510Y64770
X13970Y64770
X11430Y64770
X8890Y64770
X44450Y41910
X41910Y41910
X24130Y41910
X21590Y41910
X19050Y41910
X16510Y41910
X13970Y41910
X11430Y41910
X8890Y41910
T5
X38100Y10160
X19050Y10160
X19050Y17780
X25400Y10160
X25400Y17780
X38100Y17780
X12700Y10160
X12700Y17780
X31750Y10160
X31750Y17780
T6
X13970Y20320
X13970Y60960
X8890Y13970
X13970Y24130
X13970Y26670
X20320Y45720
M30