G04 EAGLE Gerber RS-274X export*
G75*
%MOMM*%
%FSLAX34Y34*%
%LPD*%
%INTop Copper*%
%IPPOS*%
%AMOC8*
5,1,8,0,0,1.08239X$1,22.5*%
G01*
%ADD10C,1.508000*%
%ADD11C,1.524000*%
%ADD12R,1.752600X1.752600*%
%ADD13C,1.752600*%
%ADD14C,1.308000*%
%ADD15C,0.756400*%
%ADD16C,0.152400*%


D10*
X38100Y355600D03*
X38100Y330200D03*
X38100Y304800D03*
X38100Y279400D03*
X38100Y254000D03*
X38100Y228600D03*
X38100Y203200D03*
X38100Y177800D03*
X38100Y152400D03*
X38100Y127000D03*
X63500Y355600D03*
X63500Y330200D03*
X63500Y304800D03*
X63500Y279400D03*
X63500Y254000D03*
X63500Y228600D03*
X63500Y203200D03*
X63500Y177800D03*
X63500Y152400D03*
X63500Y127000D03*
X469900Y127000D03*
X469900Y152400D03*
X469900Y177800D03*
X469900Y203200D03*
X469900Y228600D03*
X469900Y254000D03*
X469900Y279400D03*
X469900Y304800D03*
X469900Y330200D03*
X469900Y355600D03*
X495300Y127000D03*
X495300Y152400D03*
X495300Y177800D03*
X495300Y203200D03*
X495300Y228600D03*
X495300Y254000D03*
X495300Y279400D03*
X495300Y304800D03*
X495300Y330200D03*
X495300Y355600D03*
D11*
X198120Y38100D02*
X182880Y38100D01*
X182880Y63500D02*
X198120Y63500D01*
X246380Y38100D02*
X261620Y38100D01*
X261620Y63500D02*
X246380Y63500D01*
X309880Y38100D02*
X325120Y38100D01*
X325120Y63500D02*
X309880Y63500D01*
X373380Y38100D02*
X388620Y38100D01*
X388620Y63500D02*
X373380Y63500D01*
X134620Y38100D02*
X119380Y38100D01*
X119380Y63500D02*
X134620Y63500D01*
D12*
X444500Y647700D03*
D13*
X419100Y647700D03*
X393700Y647700D03*
X368300Y647700D03*
X342900Y647700D03*
X317500Y647700D03*
X292100Y647700D03*
X266700Y647700D03*
X241300Y647700D03*
X215900Y647700D03*
X190500Y647700D03*
X165100Y647700D03*
X139700Y647700D03*
X114300Y647700D03*
X88900Y647700D03*
X444500Y419100D03*
X419100Y419100D03*
X393700Y419100D03*
X368300Y419100D03*
X342900Y419100D03*
X317500Y419100D03*
X292100Y419100D03*
X266700Y419100D03*
X241300Y419100D03*
X215900Y419100D03*
X190500Y419100D03*
X165100Y419100D03*
X139700Y419100D03*
X114300Y419100D03*
X88900Y419100D03*
D14*
X190500Y101600D03*
X190500Y177800D03*
X254000Y101600D03*
X254000Y177800D03*
X381000Y101600D03*
X381000Y177800D03*
X127000Y101600D03*
X127000Y177800D03*
X317500Y101600D03*
X317500Y177800D03*
D15*
X88900Y139700D03*
D16*
X127000Y101600D01*
X63500Y330200D02*
X114300Y381000D01*
X114300Y419100D01*
X114300Y647700D01*
X127000Y635000D01*
X203200Y635000D01*
X215900Y647700D01*
X203200Y330200D02*
X63500Y330200D01*
X203200Y330200D02*
X292100Y419100D01*
X330200Y381000D01*
X469900Y381000D01*
X495300Y355600D01*
D15*
X139700Y241300D03*
D16*
X50800Y241300D01*
X38100Y228600D01*
D15*
X139700Y266700D03*
D16*
X50800Y266700D01*
X38100Y254000D01*
X63500Y203200D02*
X139700Y203200D01*
D15*
X139700Y203200D03*
X203200Y457200D03*
D16*
X139700Y520700D01*
X139700Y609600D01*
D15*
X139700Y609600D03*
D16*
X63500Y406427D02*
X63500Y355600D01*
X63500Y406427D02*
X77722Y420649D01*
X77722Y636522D02*
X88900Y647700D01*
X77722Y636522D02*
X77722Y420649D01*
X127000Y177800D02*
X165100Y139700D01*
X165100Y76200D01*
X127000Y38100D01*
X127000Y177800D02*
X63500Y177800D01*
X190500Y177800D02*
X228600Y139700D01*
X228600Y76200D01*
X190500Y38100D01*
X190500Y177800D02*
X139700Y228600D01*
X63500Y228600D01*
X254000Y177800D02*
X292100Y139700D01*
X292100Y76200D01*
X254000Y38100D01*
X254000Y177800D02*
X177800Y254000D01*
X63500Y254000D01*
X317500Y177800D02*
X355600Y139700D01*
X355600Y76200D01*
X317500Y38100D01*
X317500Y177800D02*
X215900Y279400D01*
X63500Y279400D01*
X381000Y177800D02*
X419100Y139700D01*
X419100Y76200D01*
X381000Y38100D01*
X381000Y177800D02*
X254000Y304800D01*
X63500Y304800D01*
M02*
