G04 EAGLE Gerber RS-274X export*
G75*
%MOMM*%
%FSLAX34Y34*%
%LPD*%
%IN*%
%IPPOS*%
%AMOC8*
5,1,8,0,0,1.08239X$1,22.5*%
G01*
%ADD10C,0.254000*%


D10*
X0Y0D02*
X545900Y0D01*
X545900Y682500D01*
X0Y682500D01*
X0Y0D01*
X482076Y619000D02*
X481031Y619069D01*
X479992Y619205D01*
X478965Y619410D01*
X477953Y619681D01*
X476961Y620017D01*
X475993Y620418D01*
X475054Y620882D01*
X474146Y621406D01*
X473275Y621988D01*
X472444Y622625D01*
X471657Y623316D01*
X470916Y624057D01*
X470225Y624844D01*
X469588Y625675D01*
X469006Y626546D01*
X468482Y627454D01*
X468018Y628393D01*
X467617Y629361D01*
X467281Y630353D01*
X467010Y631365D01*
X466805Y632392D01*
X466669Y633431D01*
X466600Y634476D01*
X466600Y635524D01*
X466669Y636569D01*
X466805Y637608D01*
X467010Y638635D01*
X467281Y639647D01*
X467617Y640639D01*
X468018Y641607D01*
X468482Y642546D01*
X469006Y643454D01*
X469588Y644325D01*
X470225Y645156D01*
X470916Y645943D01*
X471657Y646684D01*
X472444Y647375D01*
X473275Y648013D01*
X474146Y648595D01*
X475054Y649118D01*
X475993Y649582D01*
X476961Y649983D01*
X477953Y650319D01*
X478965Y650590D01*
X479992Y650795D01*
X481031Y650932D01*
X482076Y651000D01*
X483124Y651000D01*
X484169Y650932D01*
X485208Y650795D01*
X486235Y650590D01*
X487247Y650319D01*
X488239Y649983D01*
X489207Y649582D01*
X490146Y649118D01*
X491054Y648595D01*
X491925Y648013D01*
X492756Y647375D01*
X493543Y646684D01*
X494284Y645943D01*
X494975Y645156D01*
X495613Y644325D01*
X496195Y643454D01*
X496718Y642546D01*
X497182Y641607D01*
X497583Y640639D01*
X497919Y639647D01*
X498190Y638635D01*
X498395Y637608D01*
X498532Y636569D01*
X498600Y635524D01*
X498600Y634476D01*
X498532Y633431D01*
X498395Y632392D01*
X498190Y631365D01*
X497919Y630353D01*
X497583Y629361D01*
X497182Y628393D01*
X496718Y627454D01*
X496195Y626546D01*
X495613Y625675D01*
X494975Y624844D01*
X494284Y624057D01*
X493543Y623316D01*
X492756Y622625D01*
X491925Y621988D01*
X491054Y621406D01*
X490146Y620882D01*
X489207Y620418D01*
X488239Y620017D01*
X487247Y619681D01*
X486235Y619410D01*
X485208Y619205D01*
X484169Y619069D01*
X483124Y619000D01*
X482076Y619000D01*
X482076Y415800D02*
X481031Y415869D01*
X479992Y416005D01*
X478965Y416210D01*
X477953Y416481D01*
X476961Y416817D01*
X475993Y417218D01*
X475054Y417682D01*
X474146Y418206D01*
X473275Y418788D01*
X472444Y419425D01*
X471657Y420116D01*
X470916Y420857D01*
X470225Y421644D01*
X469588Y422475D01*
X469006Y423346D01*
X468482Y424254D01*
X468018Y425193D01*
X467617Y426161D01*
X467281Y427153D01*
X467010Y428165D01*
X466805Y429192D01*
X466669Y430231D01*
X466600Y431276D01*
X466600Y432324D01*
X466669Y433369D01*
X466805Y434408D01*
X467010Y435435D01*
X467281Y436447D01*
X467617Y437439D01*
X468018Y438407D01*
X468482Y439346D01*
X469006Y440254D01*
X469588Y441125D01*
X470225Y441956D01*
X470916Y442743D01*
X471657Y443484D01*
X472444Y444175D01*
X473275Y444813D01*
X474146Y445395D01*
X475054Y445918D01*
X475993Y446382D01*
X476961Y446783D01*
X477953Y447119D01*
X478965Y447390D01*
X479992Y447595D01*
X481031Y447732D01*
X482076Y447800D01*
X483124Y447800D01*
X484169Y447732D01*
X485208Y447595D01*
X486235Y447390D01*
X487247Y447119D01*
X488239Y446783D01*
X489207Y446382D01*
X490146Y445918D01*
X491054Y445395D01*
X491925Y444813D01*
X492756Y444175D01*
X493543Y443484D01*
X494284Y442743D01*
X494975Y441956D01*
X495613Y441125D01*
X496195Y440254D01*
X496718Y439346D01*
X497182Y438407D01*
X497583Y437439D01*
X497919Y436447D01*
X498190Y435435D01*
X498395Y434408D01*
X498532Y433369D01*
X498600Y432324D01*
X498600Y431276D01*
X498532Y430231D01*
X498395Y429192D01*
X498190Y428165D01*
X497919Y427153D01*
X497583Y426161D01*
X497182Y425193D01*
X496718Y424254D01*
X496195Y423346D01*
X495613Y422475D01*
X494975Y421644D01*
X494284Y420857D01*
X493543Y420116D01*
X492756Y419425D01*
X491925Y418788D01*
X491054Y418206D01*
X490146Y417682D01*
X489207Y417218D01*
X488239Y416817D01*
X487247Y416481D01*
X486235Y416210D01*
X485208Y416005D01*
X484169Y415869D01*
X483124Y415800D01*
X482076Y415800D01*
X50276Y415800D02*
X49231Y415869D01*
X48192Y416005D01*
X47165Y416210D01*
X46153Y416481D01*
X45161Y416817D01*
X44193Y417218D01*
X43254Y417682D01*
X42346Y418206D01*
X41475Y418788D01*
X40644Y419425D01*
X39857Y420116D01*
X39116Y420857D01*
X38425Y421644D01*
X37788Y422475D01*
X37206Y423346D01*
X36682Y424254D01*
X36218Y425193D01*
X35817Y426161D01*
X35481Y427153D01*
X35210Y428165D01*
X35005Y429192D01*
X34869Y430231D01*
X34800Y431276D01*
X34800Y432324D01*
X34869Y433369D01*
X35005Y434408D01*
X35210Y435435D01*
X35481Y436447D01*
X35817Y437439D01*
X36218Y438407D01*
X36682Y439346D01*
X37206Y440254D01*
X37788Y441125D01*
X38425Y441956D01*
X39116Y442743D01*
X39857Y443484D01*
X40644Y444175D01*
X41475Y444813D01*
X42346Y445395D01*
X43254Y445918D01*
X44193Y446382D01*
X45161Y446783D01*
X46153Y447119D01*
X47165Y447390D01*
X48192Y447595D01*
X49231Y447732D01*
X50276Y447800D01*
X51324Y447800D01*
X52369Y447732D01*
X53408Y447595D01*
X54435Y447390D01*
X55447Y447119D01*
X56439Y446783D01*
X57407Y446382D01*
X58346Y445918D01*
X59254Y445395D01*
X60125Y444813D01*
X60956Y444175D01*
X61743Y443484D01*
X62484Y442743D01*
X63175Y441956D01*
X63813Y441125D01*
X64395Y440254D01*
X64918Y439346D01*
X65382Y438407D01*
X65783Y437439D01*
X66119Y436447D01*
X66390Y435435D01*
X66595Y434408D01*
X66732Y433369D01*
X66800Y432324D01*
X66800Y431276D01*
X66732Y430231D01*
X66595Y429192D01*
X66390Y428165D01*
X66119Y427153D01*
X65783Y426161D01*
X65382Y425193D01*
X64918Y424254D01*
X64395Y423346D01*
X63813Y422475D01*
X63175Y421644D01*
X62484Y420857D01*
X61743Y420116D01*
X60956Y419425D01*
X60125Y418788D01*
X59254Y418206D01*
X58346Y417682D01*
X57407Y417218D01*
X56439Y416817D01*
X55447Y416481D01*
X54435Y416210D01*
X53408Y416005D01*
X52369Y415869D01*
X51324Y415800D01*
X50276Y415800D01*
X50276Y619000D02*
X49231Y619069D01*
X48192Y619205D01*
X47165Y619410D01*
X46153Y619681D01*
X45161Y620017D01*
X44193Y620418D01*
X43254Y620882D01*
X42346Y621406D01*
X41475Y621988D01*
X40644Y622625D01*
X39857Y623316D01*
X39116Y624057D01*
X38425Y624844D01*
X37788Y625675D01*
X37206Y626546D01*
X36682Y627454D01*
X36218Y628393D01*
X35817Y629361D01*
X35481Y630353D01*
X35210Y631365D01*
X35005Y632392D01*
X34869Y633431D01*
X34800Y634476D01*
X34800Y635524D01*
X34869Y636569D01*
X35005Y637608D01*
X35210Y638635D01*
X35481Y639647D01*
X35817Y640639D01*
X36218Y641607D01*
X36682Y642546D01*
X37206Y643454D01*
X37788Y644325D01*
X38425Y645156D01*
X39116Y645943D01*
X39857Y646684D01*
X40644Y647375D01*
X41475Y648013D01*
X42346Y648595D01*
X43254Y649118D01*
X44193Y649582D01*
X45161Y649983D01*
X46153Y650319D01*
X47165Y650590D01*
X48192Y650795D01*
X49231Y650932D01*
X50276Y651000D01*
X51324Y651000D01*
X52369Y650932D01*
X53408Y650795D01*
X54435Y650590D01*
X55447Y650319D01*
X56439Y649983D01*
X57407Y649582D01*
X58346Y649118D01*
X59254Y648595D01*
X60125Y648013D01*
X60956Y647375D01*
X61743Y646684D01*
X62484Y645943D01*
X63175Y645156D01*
X63813Y644325D01*
X64395Y643454D01*
X64918Y642546D01*
X65382Y641607D01*
X65783Y640639D01*
X66119Y639647D01*
X66390Y638635D01*
X66595Y637608D01*
X66732Y636569D01*
X66800Y635524D01*
X66800Y634476D01*
X66732Y633431D01*
X66595Y632392D01*
X66390Y631365D01*
X66119Y630353D01*
X65783Y629361D01*
X65382Y628393D01*
X64918Y627454D01*
X64395Y626546D01*
X63813Y625675D01*
X63175Y624844D01*
X62484Y624057D01*
X61743Y623316D01*
X60956Y622625D01*
X60125Y621988D01*
X59254Y621406D01*
X58346Y620882D01*
X57407Y620418D01*
X56439Y620017D01*
X55447Y619681D01*
X54435Y619410D01*
X53408Y619205D01*
X52369Y619069D01*
X51324Y619000D01*
X50276Y619000D01*
M02*
