G04 EAGLE Gerber RS-274X export*
G75*
%MOMM*%
%FSLAX34Y34*%
%LPD*%
%INSilkscreen Top*%
%IPPOS*%
%AMOC8*
5,1,8,0,0,1.08239X$1,22.5*%
G01*
%ADD10C,0.152400*%
%ADD11C,0.101600*%


D10*
X178562Y339598D02*
X178562Y327858D01*
X178564Y327725D01*
X178570Y327593D01*
X178580Y327461D01*
X178593Y327329D01*
X178611Y327197D01*
X178632Y327067D01*
X178657Y326936D01*
X178686Y326807D01*
X178719Y326679D01*
X178755Y326551D01*
X178795Y326425D01*
X178839Y326300D01*
X178887Y326176D01*
X178938Y326054D01*
X178993Y325933D01*
X179051Y325814D01*
X179113Y325696D01*
X179178Y325581D01*
X179247Y325467D01*
X179318Y325356D01*
X179394Y325247D01*
X179472Y325140D01*
X179553Y325035D01*
X179638Y324933D01*
X179725Y324833D01*
X179815Y324736D01*
X179908Y324641D01*
X180004Y324550D01*
X180102Y324461D01*
X180203Y324375D01*
X180307Y324292D01*
X180413Y324212D01*
X180521Y324136D01*
X180631Y324062D01*
X180744Y323992D01*
X180858Y323925D01*
X180975Y323862D01*
X181093Y323802D01*
X181213Y323745D01*
X181335Y323692D01*
X181458Y323643D01*
X181582Y323597D01*
X181708Y323555D01*
X181835Y323517D01*
X181963Y323482D01*
X182092Y323451D01*
X182221Y323424D01*
X182352Y323401D01*
X182483Y323381D01*
X182615Y323366D01*
X182747Y323354D01*
X182879Y323346D01*
X183012Y323342D01*
X183144Y323342D01*
X183277Y323346D01*
X183409Y323354D01*
X183541Y323366D01*
X183673Y323381D01*
X183804Y323401D01*
X183935Y323424D01*
X184064Y323451D01*
X184193Y323482D01*
X184321Y323517D01*
X184448Y323555D01*
X184574Y323597D01*
X184698Y323643D01*
X184821Y323692D01*
X184943Y323745D01*
X185063Y323802D01*
X185181Y323862D01*
X185298Y323925D01*
X185412Y323992D01*
X185525Y324062D01*
X185635Y324136D01*
X185743Y324212D01*
X185849Y324292D01*
X185953Y324375D01*
X186054Y324461D01*
X186152Y324550D01*
X186248Y324641D01*
X186341Y324736D01*
X186431Y324833D01*
X186518Y324933D01*
X186603Y325035D01*
X186684Y325140D01*
X186762Y325247D01*
X186838Y325356D01*
X186909Y325467D01*
X186978Y325581D01*
X187043Y325696D01*
X187105Y325814D01*
X187163Y325933D01*
X187218Y326054D01*
X187269Y326176D01*
X187317Y326300D01*
X187361Y326425D01*
X187401Y326551D01*
X187437Y326679D01*
X187470Y326807D01*
X187499Y326936D01*
X187524Y327067D01*
X187545Y327197D01*
X187563Y327329D01*
X187576Y327461D01*
X187586Y327593D01*
X187592Y327725D01*
X187594Y327858D01*
X187593Y327858D02*
X187593Y339598D01*
X198188Y339598D02*
X198188Y323342D01*
X193672Y339598D02*
X202703Y339598D01*
X218196Y339598D02*
X207358Y323342D01*
X218196Y323342D02*
X207358Y339598D01*
X224032Y329664D02*
X234869Y329664D01*
X246575Y339598D02*
X246700Y339596D01*
X246825Y339590D01*
X246950Y339581D01*
X247074Y339567D01*
X247198Y339550D01*
X247322Y339529D01*
X247444Y339504D01*
X247566Y339475D01*
X247687Y339443D01*
X247807Y339407D01*
X247926Y339367D01*
X248043Y339324D01*
X248159Y339277D01*
X248274Y339226D01*
X248386Y339172D01*
X248498Y339114D01*
X248607Y339054D01*
X248714Y338989D01*
X248820Y338922D01*
X248923Y338851D01*
X249024Y338777D01*
X249123Y338700D01*
X249219Y338620D01*
X249313Y338537D01*
X249404Y338452D01*
X249493Y338363D01*
X249578Y338272D01*
X249661Y338178D01*
X249741Y338082D01*
X249818Y337983D01*
X249892Y337882D01*
X249963Y337779D01*
X250030Y337673D01*
X250095Y337566D01*
X250155Y337457D01*
X250213Y337345D01*
X250267Y337233D01*
X250318Y337118D01*
X250365Y337002D01*
X250408Y336885D01*
X250448Y336766D01*
X250484Y336646D01*
X250516Y336525D01*
X250545Y336403D01*
X250570Y336281D01*
X250591Y336157D01*
X250608Y336033D01*
X250622Y335909D01*
X250631Y335784D01*
X250637Y335659D01*
X250639Y335534D01*
X246575Y339598D02*
X246432Y339596D01*
X246290Y339590D01*
X246147Y339580D01*
X246005Y339567D01*
X245864Y339549D01*
X245722Y339528D01*
X245582Y339503D01*
X245442Y339474D01*
X245303Y339441D01*
X245165Y339404D01*
X245028Y339364D01*
X244893Y339320D01*
X244758Y339272D01*
X244625Y339220D01*
X244493Y339165D01*
X244363Y339106D01*
X244235Y339044D01*
X244108Y338978D01*
X243983Y338909D01*
X243860Y338837D01*
X243740Y338761D01*
X243621Y338682D01*
X243504Y338599D01*
X243390Y338514D01*
X243278Y338425D01*
X243169Y338334D01*
X243062Y338239D01*
X242957Y338142D01*
X242856Y338041D01*
X242757Y337938D01*
X242661Y337833D01*
X242568Y337724D01*
X242478Y337613D01*
X242391Y337500D01*
X242307Y337385D01*
X242227Y337267D01*
X242149Y337147D01*
X242075Y337025D01*
X242005Y336901D01*
X241937Y336775D01*
X241874Y336647D01*
X241813Y336518D01*
X241756Y336387D01*
X241703Y336255D01*
X241654Y336121D01*
X241608Y335986D01*
X249284Y332373D02*
X249378Y332465D01*
X249468Y332559D01*
X249556Y332656D01*
X249641Y332756D01*
X249723Y332858D01*
X249802Y332963D01*
X249877Y333070D01*
X249949Y333179D01*
X250018Y333290D01*
X250084Y333404D01*
X250146Y333519D01*
X250205Y333636D01*
X250260Y333755D01*
X250311Y333875D01*
X250359Y333997D01*
X250404Y334120D01*
X250444Y334244D01*
X250481Y334370D01*
X250514Y334497D01*
X250543Y334624D01*
X250569Y334753D01*
X250590Y334882D01*
X250608Y335012D01*
X250621Y335142D01*
X250631Y335272D01*
X250637Y335403D01*
X250639Y335534D01*
X249284Y332373D02*
X241608Y323342D01*
X250639Y323342D01*
X257239Y331470D02*
X257243Y331790D01*
X257254Y332109D01*
X257273Y332429D01*
X257300Y332747D01*
X257334Y333065D01*
X257376Y333382D01*
X257426Y333698D01*
X257483Y334013D01*
X257547Y334326D01*
X257619Y334638D01*
X257698Y334948D01*
X257785Y335255D01*
X257879Y335561D01*
X257980Y335864D01*
X258089Y336165D01*
X258204Y336463D01*
X258327Y336759D01*
X258457Y337051D01*
X258594Y337340D01*
X258594Y337341D02*
X258633Y337449D01*
X258676Y337556D01*
X258722Y337661D01*
X258773Y337765D01*
X258826Y337867D01*
X258883Y337967D01*
X258944Y338065D01*
X259008Y338160D01*
X259075Y338254D01*
X259146Y338345D01*
X259219Y338434D01*
X259296Y338520D01*
X259375Y338603D01*
X259457Y338684D01*
X259542Y338762D01*
X259630Y338836D01*
X259720Y338908D01*
X259812Y338976D01*
X259907Y339042D01*
X260004Y339104D01*
X260103Y339162D01*
X260205Y339218D01*
X260307Y339269D01*
X260412Y339317D01*
X260518Y339362D01*
X260626Y339403D01*
X260735Y339440D01*
X260845Y339473D01*
X260957Y339502D01*
X261069Y339528D01*
X261182Y339550D01*
X261296Y339567D01*
X261410Y339581D01*
X261525Y339591D01*
X261640Y339597D01*
X261755Y339599D01*
X261755Y339598D02*
X261870Y339596D01*
X261985Y339590D01*
X262100Y339580D01*
X262214Y339566D01*
X262328Y339549D01*
X262441Y339527D01*
X262553Y339501D01*
X262665Y339472D01*
X262775Y339439D01*
X262884Y339402D01*
X262992Y339361D01*
X263098Y339316D01*
X263203Y339268D01*
X263305Y339217D01*
X263406Y339161D01*
X263506Y339103D01*
X263603Y339041D01*
X263697Y338976D01*
X263790Y338907D01*
X263880Y338835D01*
X263968Y338761D01*
X264053Y338683D01*
X264135Y338602D01*
X264214Y338519D01*
X264291Y338433D01*
X264364Y338344D01*
X264435Y338253D01*
X264502Y338159D01*
X264566Y338064D01*
X264627Y337966D01*
X264684Y337866D01*
X264737Y337764D01*
X264788Y337660D01*
X264834Y337555D01*
X264877Y337448D01*
X264916Y337340D01*
X264915Y337340D02*
X265052Y337051D01*
X265182Y336759D01*
X265305Y336463D01*
X265420Y336165D01*
X265529Y335864D01*
X265630Y335561D01*
X265724Y335255D01*
X265811Y334948D01*
X265890Y334638D01*
X265962Y334326D01*
X266026Y334013D01*
X266083Y333698D01*
X266133Y333382D01*
X266175Y333065D01*
X266209Y332747D01*
X266236Y332429D01*
X266255Y332109D01*
X266266Y331790D01*
X266270Y331470D01*
X257240Y331470D02*
X257244Y331150D01*
X257255Y330831D01*
X257274Y330511D01*
X257301Y330193D01*
X257335Y329875D01*
X257377Y329558D01*
X257427Y329242D01*
X257484Y328927D01*
X257548Y328614D01*
X257620Y328302D01*
X257699Y327992D01*
X257786Y327685D01*
X257880Y327379D01*
X257981Y327076D01*
X258090Y326775D01*
X258205Y326477D01*
X258328Y326181D01*
X258458Y325889D01*
X258595Y325600D01*
X258594Y325600D02*
X258633Y325492D01*
X258676Y325385D01*
X258722Y325280D01*
X258773Y325176D01*
X258826Y325074D01*
X258883Y324974D01*
X258944Y324876D01*
X259008Y324781D01*
X259075Y324687D01*
X259146Y324596D01*
X259219Y324507D01*
X259296Y324421D01*
X259375Y324338D01*
X259457Y324257D01*
X259542Y324179D01*
X259630Y324105D01*
X259720Y324033D01*
X259813Y323964D01*
X259907Y323899D01*
X260004Y323837D01*
X260104Y323779D01*
X260205Y323723D01*
X260307Y323672D01*
X260412Y323624D01*
X260518Y323579D01*
X260626Y323538D01*
X260735Y323501D01*
X260845Y323468D01*
X260957Y323439D01*
X261069Y323413D01*
X261182Y323391D01*
X261296Y323374D01*
X261410Y323360D01*
X261525Y323350D01*
X261640Y323344D01*
X261755Y323342D01*
X264915Y325600D02*
X265052Y325889D01*
X265182Y326181D01*
X265305Y326477D01*
X265420Y326775D01*
X265529Y327076D01*
X265630Y327379D01*
X265724Y327685D01*
X265811Y327992D01*
X265890Y328302D01*
X265962Y328614D01*
X266026Y328927D01*
X266083Y329242D01*
X266133Y329558D01*
X266175Y329875D01*
X266209Y330193D01*
X266236Y330511D01*
X266255Y330831D01*
X266266Y331150D01*
X266270Y331470D01*
X264916Y325600D02*
X264877Y325492D01*
X264834Y325385D01*
X264788Y325280D01*
X264737Y325176D01*
X264684Y325074D01*
X264627Y324974D01*
X264566Y324876D01*
X264502Y324781D01*
X264435Y324687D01*
X264364Y324596D01*
X264291Y324507D01*
X264214Y324421D01*
X264135Y324338D01*
X264053Y324257D01*
X263968Y324179D01*
X263880Y324105D01*
X263790Y324033D01*
X263697Y323964D01*
X263603Y323899D01*
X263506Y323837D01*
X263406Y323779D01*
X263305Y323723D01*
X263202Y323672D01*
X263098Y323624D01*
X262992Y323579D01*
X262884Y323538D01*
X262775Y323501D01*
X262665Y323468D01*
X262553Y323439D01*
X262441Y323413D01*
X262328Y323391D01*
X262214Y323374D01*
X262100Y323360D01*
X261985Y323350D01*
X261870Y323344D01*
X261755Y323342D01*
X258142Y326954D02*
X265367Y335986D01*
X277838Y339598D02*
X277963Y339596D01*
X278088Y339590D01*
X278213Y339581D01*
X278337Y339567D01*
X278461Y339550D01*
X278585Y339529D01*
X278707Y339504D01*
X278829Y339475D01*
X278950Y339443D01*
X279070Y339407D01*
X279189Y339367D01*
X279306Y339324D01*
X279422Y339277D01*
X279537Y339226D01*
X279649Y339172D01*
X279761Y339114D01*
X279870Y339054D01*
X279977Y338989D01*
X280083Y338922D01*
X280186Y338851D01*
X280287Y338777D01*
X280386Y338700D01*
X280482Y338620D01*
X280576Y338537D01*
X280667Y338452D01*
X280756Y338363D01*
X280841Y338272D01*
X280924Y338178D01*
X281004Y338082D01*
X281081Y337983D01*
X281155Y337882D01*
X281226Y337779D01*
X281293Y337673D01*
X281358Y337566D01*
X281418Y337457D01*
X281476Y337345D01*
X281530Y337233D01*
X281581Y337118D01*
X281628Y337002D01*
X281671Y336885D01*
X281711Y336766D01*
X281747Y336646D01*
X281779Y336525D01*
X281808Y336403D01*
X281833Y336281D01*
X281854Y336157D01*
X281871Y336033D01*
X281885Y335909D01*
X281894Y335784D01*
X281900Y335659D01*
X281902Y335534D01*
X277838Y339598D02*
X277695Y339596D01*
X277553Y339590D01*
X277410Y339580D01*
X277268Y339567D01*
X277127Y339549D01*
X276985Y339528D01*
X276845Y339503D01*
X276705Y339474D01*
X276566Y339441D01*
X276428Y339404D01*
X276291Y339364D01*
X276156Y339320D01*
X276021Y339272D01*
X275888Y339220D01*
X275756Y339165D01*
X275626Y339106D01*
X275498Y339044D01*
X275371Y338978D01*
X275246Y338909D01*
X275123Y338837D01*
X275003Y338761D01*
X274884Y338682D01*
X274767Y338599D01*
X274653Y338514D01*
X274541Y338425D01*
X274432Y338334D01*
X274325Y338239D01*
X274220Y338142D01*
X274119Y338041D01*
X274020Y337938D01*
X273924Y337833D01*
X273831Y337724D01*
X273741Y337613D01*
X273654Y337500D01*
X273570Y337385D01*
X273490Y337267D01*
X273412Y337147D01*
X273338Y337025D01*
X273268Y336901D01*
X273200Y336775D01*
X273137Y336647D01*
X273076Y336518D01*
X273019Y336387D01*
X272966Y336255D01*
X272917Y336121D01*
X272871Y335986D01*
X280546Y332373D02*
X280640Y332465D01*
X280730Y332559D01*
X280818Y332656D01*
X280903Y332756D01*
X280985Y332858D01*
X281064Y332963D01*
X281139Y333070D01*
X281211Y333179D01*
X281280Y333290D01*
X281346Y333404D01*
X281408Y333519D01*
X281467Y333636D01*
X281522Y333755D01*
X281573Y333875D01*
X281621Y333997D01*
X281666Y334120D01*
X281706Y334244D01*
X281743Y334370D01*
X281776Y334497D01*
X281805Y334624D01*
X281831Y334753D01*
X281852Y334882D01*
X281870Y335012D01*
X281883Y335142D01*
X281893Y335272D01*
X281899Y335403D01*
X281901Y335534D01*
X280547Y332373D02*
X272870Y323342D01*
X281902Y323342D01*
X288502Y335986D02*
X293017Y339598D01*
X293017Y323342D01*
X288502Y323342D02*
X297533Y323342D01*
X304684Y323342D02*
X304684Y339598D01*
X311909Y339598D01*
X311909Y332373D02*
X304684Y332373D01*
X317680Y331470D02*
X317684Y331790D01*
X317695Y332109D01*
X317714Y332429D01*
X317741Y332747D01*
X317775Y333065D01*
X317817Y333382D01*
X317867Y333698D01*
X317924Y334013D01*
X317988Y334326D01*
X318060Y334638D01*
X318139Y334948D01*
X318226Y335255D01*
X318320Y335561D01*
X318421Y335864D01*
X318530Y336165D01*
X318645Y336463D01*
X318768Y336759D01*
X318898Y337051D01*
X319035Y337340D01*
X319034Y337341D02*
X319073Y337449D01*
X319116Y337556D01*
X319162Y337661D01*
X319213Y337765D01*
X319266Y337867D01*
X319323Y337967D01*
X319384Y338065D01*
X319448Y338160D01*
X319515Y338254D01*
X319586Y338345D01*
X319659Y338434D01*
X319736Y338520D01*
X319815Y338603D01*
X319897Y338684D01*
X319982Y338762D01*
X320070Y338836D01*
X320160Y338908D01*
X320252Y338976D01*
X320347Y339042D01*
X320444Y339104D01*
X320543Y339162D01*
X320645Y339218D01*
X320747Y339269D01*
X320852Y339317D01*
X320958Y339362D01*
X321066Y339403D01*
X321175Y339440D01*
X321285Y339473D01*
X321397Y339502D01*
X321509Y339528D01*
X321622Y339550D01*
X321736Y339567D01*
X321850Y339581D01*
X321965Y339591D01*
X322080Y339597D01*
X322195Y339599D01*
X322195Y339598D02*
X322310Y339596D01*
X322425Y339590D01*
X322540Y339580D01*
X322654Y339566D01*
X322768Y339549D01*
X322881Y339527D01*
X322993Y339501D01*
X323105Y339472D01*
X323215Y339439D01*
X323324Y339402D01*
X323432Y339361D01*
X323538Y339316D01*
X323643Y339268D01*
X323745Y339217D01*
X323846Y339161D01*
X323946Y339103D01*
X324043Y339041D01*
X324137Y338976D01*
X324230Y338907D01*
X324320Y338835D01*
X324408Y338761D01*
X324493Y338683D01*
X324575Y338602D01*
X324654Y338519D01*
X324731Y338433D01*
X324804Y338344D01*
X324875Y338253D01*
X324942Y338159D01*
X325006Y338064D01*
X325067Y337966D01*
X325124Y337866D01*
X325177Y337764D01*
X325228Y337660D01*
X325274Y337555D01*
X325317Y337448D01*
X325356Y337340D01*
X325493Y337051D01*
X325623Y336759D01*
X325746Y336463D01*
X325861Y336165D01*
X325970Y335864D01*
X326071Y335561D01*
X326165Y335255D01*
X326252Y334948D01*
X326331Y334638D01*
X326403Y334326D01*
X326467Y334013D01*
X326524Y333698D01*
X326574Y333382D01*
X326616Y333065D01*
X326650Y332747D01*
X326677Y332429D01*
X326696Y332109D01*
X326707Y331790D01*
X326711Y331470D01*
X317680Y331470D02*
X317684Y331150D01*
X317695Y330831D01*
X317714Y330511D01*
X317741Y330193D01*
X317775Y329875D01*
X317817Y329558D01*
X317867Y329242D01*
X317924Y328927D01*
X317988Y328614D01*
X318060Y328302D01*
X318139Y327992D01*
X318226Y327685D01*
X318320Y327379D01*
X318421Y327076D01*
X318530Y326775D01*
X318645Y326477D01*
X318768Y326181D01*
X318898Y325889D01*
X319035Y325600D01*
X319034Y325600D02*
X319073Y325492D01*
X319116Y325385D01*
X319162Y325280D01*
X319213Y325176D01*
X319266Y325074D01*
X319323Y324974D01*
X319384Y324876D01*
X319448Y324781D01*
X319515Y324687D01*
X319586Y324596D01*
X319659Y324507D01*
X319736Y324421D01*
X319815Y324338D01*
X319897Y324257D01*
X319982Y324179D01*
X320070Y324105D01*
X320160Y324033D01*
X320253Y323964D01*
X320347Y323899D01*
X320444Y323837D01*
X320544Y323779D01*
X320645Y323723D01*
X320747Y323672D01*
X320852Y323624D01*
X320958Y323579D01*
X321066Y323538D01*
X321175Y323501D01*
X321285Y323468D01*
X321397Y323439D01*
X321509Y323413D01*
X321622Y323391D01*
X321736Y323374D01*
X321850Y323360D01*
X321965Y323350D01*
X322080Y323344D01*
X322195Y323342D01*
X325356Y325600D02*
X325493Y325889D01*
X325623Y326181D01*
X325746Y326477D01*
X325861Y326775D01*
X325970Y327076D01*
X326071Y327379D01*
X326165Y327685D01*
X326252Y327992D01*
X326331Y328302D01*
X326403Y328614D01*
X326467Y328927D01*
X326524Y329242D01*
X326574Y329558D01*
X326616Y329875D01*
X326650Y330193D01*
X326677Y330511D01*
X326696Y330831D01*
X326707Y331150D01*
X326711Y331470D01*
X325356Y325600D02*
X325317Y325492D01*
X325274Y325385D01*
X325228Y325280D01*
X325177Y325176D01*
X325124Y325074D01*
X325067Y324974D01*
X325006Y324876D01*
X324942Y324781D01*
X324875Y324687D01*
X324804Y324596D01*
X324731Y324507D01*
X324654Y324421D01*
X324575Y324338D01*
X324493Y324257D01*
X324408Y324179D01*
X324320Y324105D01*
X324230Y324033D01*
X324137Y323964D01*
X324043Y323899D01*
X323946Y323837D01*
X323846Y323779D01*
X323745Y323723D01*
X323642Y323672D01*
X323538Y323624D01*
X323432Y323579D01*
X323324Y323538D01*
X323215Y323501D01*
X323105Y323468D01*
X322993Y323439D01*
X322881Y323413D01*
X322768Y323391D01*
X322654Y323374D01*
X322540Y323360D01*
X322425Y323350D01*
X322310Y323344D01*
X322195Y323342D01*
X318583Y326954D02*
X325808Y335986D01*
X333311Y335986D02*
X337827Y339598D01*
X337827Y323342D01*
X342342Y323342D02*
X333311Y323342D01*
X348942Y323342D02*
X354361Y323342D01*
X354479Y323344D01*
X354597Y323350D01*
X354715Y323359D01*
X354832Y323373D01*
X354949Y323390D01*
X355066Y323411D01*
X355181Y323436D01*
X355296Y323465D01*
X355410Y323498D01*
X355522Y323534D01*
X355633Y323574D01*
X355743Y323617D01*
X355852Y323664D01*
X355959Y323714D01*
X356064Y323769D01*
X356167Y323826D01*
X356268Y323887D01*
X356368Y323951D01*
X356465Y324018D01*
X356560Y324088D01*
X356652Y324162D01*
X356743Y324238D01*
X356830Y324318D01*
X356915Y324400D01*
X356997Y324485D01*
X357077Y324572D01*
X357153Y324663D01*
X357227Y324755D01*
X357297Y324850D01*
X357364Y324947D01*
X357428Y325047D01*
X357489Y325148D01*
X357546Y325251D01*
X357601Y325356D01*
X357651Y325463D01*
X357698Y325572D01*
X357741Y325682D01*
X357781Y325793D01*
X357817Y325905D01*
X357850Y326019D01*
X357879Y326134D01*
X357904Y326249D01*
X357925Y326366D01*
X357942Y326483D01*
X357956Y326600D01*
X357965Y326718D01*
X357971Y326836D01*
X357973Y326954D01*
X357973Y328761D01*
X357971Y328879D01*
X357965Y328997D01*
X357956Y329115D01*
X357942Y329232D01*
X357925Y329349D01*
X357904Y329466D01*
X357879Y329581D01*
X357850Y329696D01*
X357817Y329810D01*
X357781Y329922D01*
X357741Y330033D01*
X357698Y330143D01*
X357651Y330252D01*
X357601Y330359D01*
X357546Y330464D01*
X357489Y330567D01*
X357428Y330668D01*
X357364Y330768D01*
X357297Y330865D01*
X357227Y330960D01*
X357153Y331052D01*
X357077Y331143D01*
X356997Y331230D01*
X356915Y331315D01*
X356830Y331397D01*
X356743Y331477D01*
X356652Y331553D01*
X356560Y331627D01*
X356465Y331697D01*
X356368Y331764D01*
X356268Y331828D01*
X356167Y331889D01*
X356064Y331946D01*
X355959Y332001D01*
X355852Y332051D01*
X355743Y332098D01*
X355633Y332141D01*
X355522Y332181D01*
X355410Y332217D01*
X355296Y332250D01*
X355181Y332279D01*
X355066Y332304D01*
X354949Y332325D01*
X354832Y332342D01*
X354715Y332356D01*
X354597Y332365D01*
X354479Y332371D01*
X354361Y332373D01*
X348942Y332373D01*
X348942Y339598D01*
X357973Y339598D01*
X178562Y312928D02*
X178562Y296672D01*
X178562Y312928D02*
X183078Y312928D01*
X183209Y312926D01*
X183341Y312920D01*
X183472Y312911D01*
X183602Y312897D01*
X183733Y312880D01*
X183862Y312859D01*
X183991Y312835D01*
X184119Y312806D01*
X184247Y312774D01*
X184373Y312738D01*
X184498Y312699D01*
X184623Y312656D01*
X184745Y312609D01*
X184867Y312559D01*
X184987Y312505D01*
X185105Y312448D01*
X185221Y312387D01*
X185336Y312323D01*
X185449Y312256D01*
X185560Y312185D01*
X185668Y312111D01*
X185775Y312034D01*
X185879Y311954D01*
X185981Y311871D01*
X186080Y311786D01*
X186177Y311697D01*
X186271Y311605D01*
X186363Y311511D01*
X186452Y311414D01*
X186537Y311315D01*
X186620Y311213D01*
X186700Y311109D01*
X186777Y311002D01*
X186851Y310894D01*
X186922Y310783D01*
X186989Y310670D01*
X187053Y310555D01*
X187114Y310439D01*
X187171Y310321D01*
X187225Y310201D01*
X187275Y310079D01*
X187322Y309957D01*
X187365Y309832D01*
X187404Y309707D01*
X187440Y309581D01*
X187472Y309453D01*
X187501Y309325D01*
X187525Y309196D01*
X187546Y309067D01*
X187563Y308936D01*
X187577Y308806D01*
X187586Y308675D01*
X187592Y308543D01*
X187594Y308412D01*
X187593Y308412D02*
X187593Y301188D01*
X187594Y301188D02*
X187592Y301057D01*
X187586Y300925D01*
X187577Y300794D01*
X187563Y300664D01*
X187546Y300533D01*
X187525Y300404D01*
X187501Y300275D01*
X187472Y300147D01*
X187440Y300019D01*
X187404Y299893D01*
X187365Y299768D01*
X187322Y299643D01*
X187275Y299521D01*
X187225Y299399D01*
X187171Y299279D01*
X187114Y299161D01*
X187053Y299045D01*
X186989Y298930D01*
X186922Y298817D01*
X186851Y298706D01*
X186777Y298598D01*
X186700Y298491D01*
X186620Y298387D01*
X186537Y298285D01*
X186452Y298186D01*
X186363Y298089D01*
X186271Y297995D01*
X186177Y297903D01*
X186080Y297814D01*
X185981Y297729D01*
X185879Y297646D01*
X185775Y297566D01*
X185668Y297489D01*
X185560Y297415D01*
X185449Y297344D01*
X185336Y297277D01*
X185221Y297213D01*
X185105Y297152D01*
X184987Y297095D01*
X184867Y297041D01*
X184745Y296991D01*
X184623Y296944D01*
X184498Y296901D01*
X184373Y296862D01*
X184247Y296826D01*
X184119Y296794D01*
X183991Y296765D01*
X183862Y296741D01*
X183732Y296720D01*
X183602Y296703D01*
X183472Y296689D01*
X183341Y296680D01*
X183209Y296674D01*
X183078Y296672D01*
X178562Y296672D01*
X197285Y296672D02*
X201800Y296672D01*
X197285Y296672D02*
X197184Y296674D01*
X197083Y296680D01*
X196982Y296689D01*
X196881Y296702D01*
X196781Y296719D01*
X196682Y296740D01*
X196584Y296764D01*
X196487Y296792D01*
X196390Y296824D01*
X196295Y296859D01*
X196202Y296898D01*
X196110Y296940D01*
X196019Y296986D01*
X195931Y297035D01*
X195844Y297087D01*
X195759Y297143D01*
X195676Y297201D01*
X195596Y297263D01*
X195518Y297328D01*
X195442Y297395D01*
X195369Y297465D01*
X195299Y297538D01*
X195232Y297614D01*
X195167Y297692D01*
X195105Y297772D01*
X195047Y297855D01*
X194991Y297940D01*
X194939Y298027D01*
X194890Y298115D01*
X194844Y298206D01*
X194802Y298298D01*
X194763Y298391D01*
X194728Y298486D01*
X194696Y298583D01*
X194668Y298680D01*
X194644Y298778D01*
X194623Y298877D01*
X194606Y298977D01*
X194593Y299078D01*
X194584Y299179D01*
X194578Y299280D01*
X194576Y299381D01*
X194575Y299381D02*
X194575Y303897D01*
X194576Y303897D02*
X194578Y304016D01*
X194584Y304136D01*
X194594Y304255D01*
X194608Y304373D01*
X194625Y304492D01*
X194647Y304609D01*
X194672Y304726D01*
X194702Y304841D01*
X194735Y304956D01*
X194772Y305070D01*
X194812Y305182D01*
X194857Y305293D01*
X194905Y305402D01*
X194956Y305510D01*
X195011Y305616D01*
X195070Y305720D01*
X195132Y305822D01*
X195197Y305922D01*
X195266Y306020D01*
X195338Y306116D01*
X195413Y306209D01*
X195490Y306299D01*
X195571Y306387D01*
X195655Y306472D01*
X195742Y306554D01*
X195831Y306634D01*
X195923Y306710D01*
X196017Y306784D01*
X196114Y306854D01*
X196212Y306921D01*
X196313Y306985D01*
X196417Y307045D01*
X196522Y307102D01*
X196629Y307155D01*
X196737Y307205D01*
X196847Y307251D01*
X196959Y307293D01*
X197072Y307332D01*
X197186Y307367D01*
X197301Y307398D01*
X197418Y307426D01*
X197535Y307449D01*
X197652Y307469D01*
X197771Y307485D01*
X197890Y307497D01*
X198009Y307505D01*
X198128Y307509D01*
X198248Y307509D01*
X198367Y307505D01*
X198486Y307497D01*
X198605Y307485D01*
X198724Y307469D01*
X198841Y307449D01*
X198958Y307426D01*
X199075Y307398D01*
X199190Y307367D01*
X199304Y307332D01*
X199417Y307293D01*
X199529Y307251D01*
X199639Y307205D01*
X199747Y307155D01*
X199854Y307102D01*
X199959Y307045D01*
X200063Y306985D01*
X200164Y306921D01*
X200262Y306854D01*
X200359Y306784D01*
X200453Y306710D01*
X200545Y306634D01*
X200634Y306554D01*
X200721Y306472D01*
X200805Y306387D01*
X200886Y306299D01*
X200963Y306209D01*
X201038Y306116D01*
X201110Y306020D01*
X201179Y305922D01*
X201244Y305822D01*
X201306Y305720D01*
X201365Y305616D01*
X201420Y305510D01*
X201471Y305402D01*
X201519Y305293D01*
X201564Y305182D01*
X201604Y305070D01*
X201641Y304956D01*
X201674Y304841D01*
X201704Y304726D01*
X201729Y304609D01*
X201751Y304492D01*
X201768Y304373D01*
X201782Y304255D01*
X201792Y304136D01*
X201798Y304016D01*
X201800Y303897D01*
X201800Y302091D01*
X194575Y302091D01*
X207601Y307509D02*
X211214Y296672D01*
X214826Y307509D01*
X223715Y302994D02*
X227779Y302994D01*
X223715Y302994D02*
X223603Y302992D01*
X223492Y302986D01*
X223381Y302976D01*
X223270Y302963D01*
X223160Y302945D01*
X223051Y302923D01*
X222942Y302898D01*
X222834Y302869D01*
X222728Y302836D01*
X222622Y302799D01*
X222518Y302759D01*
X222416Y302715D01*
X222315Y302667D01*
X222216Y302616D01*
X222118Y302561D01*
X222023Y302503D01*
X221930Y302442D01*
X221839Y302377D01*
X221750Y302309D01*
X221664Y302238D01*
X221581Y302165D01*
X221500Y302088D01*
X221421Y302008D01*
X221346Y301926D01*
X221274Y301841D01*
X221204Y301754D01*
X221138Y301664D01*
X221075Y301572D01*
X221015Y301477D01*
X220959Y301381D01*
X220906Y301283D01*
X220857Y301183D01*
X220811Y301081D01*
X220769Y300978D01*
X220730Y300873D01*
X220695Y300767D01*
X220664Y300660D01*
X220637Y300552D01*
X220613Y300443D01*
X220594Y300333D01*
X220578Y300223D01*
X220566Y300112D01*
X220558Y300000D01*
X220554Y299889D01*
X220554Y299777D01*
X220558Y299666D01*
X220566Y299554D01*
X220578Y299443D01*
X220594Y299333D01*
X220613Y299223D01*
X220637Y299114D01*
X220664Y299006D01*
X220695Y298899D01*
X220730Y298793D01*
X220769Y298688D01*
X220811Y298585D01*
X220857Y298483D01*
X220906Y298383D01*
X220959Y298285D01*
X221015Y298189D01*
X221075Y298094D01*
X221138Y298002D01*
X221204Y297912D01*
X221274Y297825D01*
X221346Y297740D01*
X221421Y297658D01*
X221500Y297578D01*
X221581Y297501D01*
X221664Y297428D01*
X221750Y297357D01*
X221839Y297289D01*
X221930Y297224D01*
X222023Y297163D01*
X222118Y297105D01*
X222216Y297050D01*
X222315Y296999D01*
X222416Y296951D01*
X222518Y296907D01*
X222622Y296867D01*
X222728Y296830D01*
X222834Y296797D01*
X222942Y296768D01*
X223051Y296743D01*
X223160Y296721D01*
X223270Y296703D01*
X223381Y296690D01*
X223492Y296680D01*
X223603Y296674D01*
X223715Y296672D01*
X227779Y296672D01*
X227779Y304800D01*
X227777Y304901D01*
X227771Y305002D01*
X227762Y305103D01*
X227749Y305204D01*
X227732Y305304D01*
X227711Y305403D01*
X227687Y305501D01*
X227659Y305598D01*
X227627Y305695D01*
X227592Y305790D01*
X227553Y305883D01*
X227511Y305975D01*
X227465Y306066D01*
X227416Y306155D01*
X227364Y306241D01*
X227308Y306326D01*
X227250Y306409D01*
X227188Y306489D01*
X227123Y306567D01*
X227056Y306643D01*
X226986Y306716D01*
X226913Y306786D01*
X226837Y306853D01*
X226759Y306918D01*
X226679Y306980D01*
X226596Y307038D01*
X226511Y307094D01*
X226425Y307146D01*
X226336Y307195D01*
X226245Y307241D01*
X226153Y307283D01*
X226060Y307322D01*
X225965Y307357D01*
X225868Y307389D01*
X225771Y307417D01*
X225673Y307441D01*
X225574Y307462D01*
X225474Y307479D01*
X225373Y307492D01*
X225272Y307501D01*
X225171Y307507D01*
X225070Y307509D01*
X221457Y307509D01*
X235216Y307509D02*
X235216Y296672D01*
X235216Y307509D02*
X239732Y307509D01*
X239836Y307507D01*
X239939Y307501D01*
X240043Y307491D01*
X240146Y307477D01*
X240248Y307459D01*
X240349Y307438D01*
X240450Y307412D01*
X240549Y307383D01*
X240648Y307350D01*
X240745Y307313D01*
X240840Y307272D01*
X240934Y307228D01*
X241026Y307180D01*
X241116Y307129D01*
X241205Y307074D01*
X241291Y307016D01*
X241374Y306954D01*
X241456Y306890D01*
X241534Y306822D01*
X241610Y306752D01*
X241684Y306679D01*
X241754Y306602D01*
X241822Y306524D01*
X241886Y306442D01*
X241948Y306359D01*
X242006Y306273D01*
X242061Y306184D01*
X242112Y306094D01*
X242160Y306002D01*
X242204Y305908D01*
X242245Y305813D01*
X242282Y305716D01*
X242315Y305617D01*
X242344Y305518D01*
X242370Y305417D01*
X242391Y305316D01*
X242409Y305214D01*
X242423Y305111D01*
X242433Y305007D01*
X242439Y304904D01*
X242441Y304800D01*
X242441Y296672D01*
X251921Y296672D02*
X256436Y296672D01*
X251921Y296672D02*
X251820Y296674D01*
X251719Y296680D01*
X251618Y296689D01*
X251517Y296702D01*
X251417Y296719D01*
X251318Y296740D01*
X251220Y296764D01*
X251123Y296792D01*
X251026Y296824D01*
X250931Y296859D01*
X250838Y296898D01*
X250746Y296940D01*
X250655Y296986D01*
X250567Y297035D01*
X250480Y297087D01*
X250395Y297143D01*
X250312Y297201D01*
X250232Y297263D01*
X250154Y297328D01*
X250078Y297395D01*
X250005Y297465D01*
X249935Y297538D01*
X249868Y297614D01*
X249803Y297692D01*
X249741Y297772D01*
X249683Y297855D01*
X249627Y297940D01*
X249575Y298027D01*
X249526Y298115D01*
X249480Y298206D01*
X249438Y298298D01*
X249399Y298391D01*
X249364Y298486D01*
X249332Y298583D01*
X249304Y298680D01*
X249280Y298778D01*
X249259Y298877D01*
X249242Y298977D01*
X249229Y299078D01*
X249220Y299179D01*
X249214Y299280D01*
X249212Y299381D01*
X249211Y299381D02*
X249211Y304800D01*
X249212Y304800D02*
X249214Y304901D01*
X249220Y305002D01*
X249229Y305103D01*
X249242Y305204D01*
X249259Y305304D01*
X249280Y305403D01*
X249304Y305501D01*
X249332Y305598D01*
X249364Y305695D01*
X249399Y305790D01*
X249438Y305883D01*
X249480Y305975D01*
X249526Y306066D01*
X249575Y306155D01*
X249627Y306241D01*
X249683Y306326D01*
X249741Y306409D01*
X249803Y306489D01*
X249868Y306567D01*
X249935Y306643D01*
X250005Y306716D01*
X250078Y306786D01*
X250154Y306853D01*
X250232Y306918D01*
X250312Y306980D01*
X250395Y307038D01*
X250480Y307094D01*
X250567Y307146D01*
X250655Y307195D01*
X250746Y307241D01*
X250838Y307283D01*
X250931Y307322D01*
X251026Y307357D01*
X251123Y307389D01*
X251220Y307417D01*
X251318Y307441D01*
X251417Y307462D01*
X251517Y307479D01*
X251618Y307492D01*
X251719Y307501D01*
X251820Y307507D01*
X251921Y307509D01*
X256436Y307509D01*
X256436Y293963D01*
X256434Y293859D01*
X256428Y293756D01*
X256418Y293652D01*
X256404Y293549D01*
X256386Y293447D01*
X256365Y293346D01*
X256339Y293245D01*
X256310Y293146D01*
X256277Y293047D01*
X256240Y292950D01*
X256199Y292855D01*
X256155Y292761D01*
X256107Y292669D01*
X256056Y292579D01*
X256001Y292490D01*
X255943Y292404D01*
X255881Y292321D01*
X255817Y292239D01*
X255749Y292161D01*
X255679Y292085D01*
X255606Y292011D01*
X255529Y291941D01*
X255451Y291873D01*
X255369Y291809D01*
X255286Y291747D01*
X255200Y291689D01*
X255111Y291634D01*
X255021Y291583D01*
X254929Y291535D01*
X254835Y291491D01*
X254740Y291450D01*
X254643Y291413D01*
X254544Y291380D01*
X254445Y291351D01*
X254344Y291325D01*
X254243Y291304D01*
X254141Y291286D01*
X254038Y291272D01*
X253934Y291262D01*
X253831Y291256D01*
X253727Y291254D01*
X253727Y291253D02*
X250114Y291253D01*
X264707Y302994D02*
X269223Y301188D01*
X264707Y302994D02*
X264619Y303031D01*
X264533Y303072D01*
X264448Y303116D01*
X264365Y303164D01*
X264285Y303215D01*
X264206Y303269D01*
X264130Y303327D01*
X264056Y303387D01*
X263984Y303451D01*
X263916Y303517D01*
X263850Y303587D01*
X263787Y303658D01*
X263726Y303733D01*
X263669Y303809D01*
X263616Y303888D01*
X263565Y303969D01*
X263518Y304052D01*
X263474Y304137D01*
X263434Y304224D01*
X263397Y304312D01*
X263364Y304402D01*
X263334Y304493D01*
X263309Y304585D01*
X263287Y304678D01*
X263269Y304772D01*
X263254Y304866D01*
X263244Y304961D01*
X263238Y305057D01*
X263235Y305152D01*
X263236Y305248D01*
X263242Y305343D01*
X263251Y305439D01*
X263264Y305533D01*
X263280Y305627D01*
X263301Y305721D01*
X263326Y305813D01*
X263354Y305904D01*
X263386Y305994D01*
X263421Y306083D01*
X263460Y306170D01*
X263503Y306256D01*
X263549Y306340D01*
X263599Y306421D01*
X263651Y306501D01*
X263707Y306579D01*
X263767Y306654D01*
X263829Y306726D01*
X263894Y306796D01*
X263962Y306864D01*
X264032Y306928D01*
X264105Y306990D01*
X264181Y307048D01*
X264259Y307104D01*
X264339Y307156D01*
X264421Y307205D01*
X264505Y307250D01*
X264591Y307292D01*
X264678Y307331D01*
X264767Y307366D01*
X264858Y307397D01*
X264949Y307424D01*
X265042Y307448D01*
X265135Y307468D01*
X265229Y307484D01*
X265324Y307496D01*
X265419Y307505D01*
X265515Y307509D01*
X265610Y307510D01*
X265857Y307503D01*
X266103Y307491D01*
X266349Y307473D01*
X266595Y307448D01*
X266839Y307418D01*
X267083Y307382D01*
X267326Y307341D01*
X267568Y307293D01*
X267809Y307239D01*
X268048Y307180D01*
X268286Y307115D01*
X268522Y307044D01*
X268757Y306968D01*
X268990Y306886D01*
X269220Y306798D01*
X269448Y306705D01*
X269675Y306607D01*
X269223Y301187D02*
X269311Y301150D01*
X269397Y301109D01*
X269482Y301065D01*
X269565Y301017D01*
X269645Y300966D01*
X269724Y300912D01*
X269800Y300854D01*
X269874Y300794D01*
X269946Y300730D01*
X270014Y300664D01*
X270080Y300594D01*
X270143Y300523D01*
X270204Y300448D01*
X270261Y300372D01*
X270314Y300293D01*
X270365Y300212D01*
X270412Y300129D01*
X270456Y300044D01*
X270496Y299957D01*
X270533Y299869D01*
X270566Y299779D01*
X270596Y299688D01*
X270621Y299596D01*
X270643Y299503D01*
X270661Y299409D01*
X270676Y299315D01*
X270686Y299220D01*
X270692Y299124D01*
X270695Y299029D01*
X270694Y298933D01*
X270688Y298838D01*
X270679Y298742D01*
X270666Y298648D01*
X270650Y298554D01*
X270629Y298460D01*
X270604Y298368D01*
X270576Y298277D01*
X270544Y298187D01*
X270509Y298098D01*
X270470Y298011D01*
X270427Y297925D01*
X270381Y297841D01*
X270331Y297760D01*
X270279Y297680D01*
X270223Y297602D01*
X270163Y297527D01*
X270101Y297455D01*
X270036Y297385D01*
X269968Y297317D01*
X269898Y297253D01*
X269825Y297191D01*
X269749Y297133D01*
X269671Y297077D01*
X269591Y297025D01*
X269509Y296976D01*
X269425Y296931D01*
X269339Y296889D01*
X269252Y296850D01*
X269163Y296815D01*
X269072Y296784D01*
X268981Y296757D01*
X268888Y296733D01*
X268795Y296713D01*
X268701Y296697D01*
X268606Y296685D01*
X268511Y296676D01*
X268415Y296672D01*
X268320Y296671D01*
X268319Y296672D02*
X267957Y296681D01*
X267595Y296699D01*
X267234Y296726D01*
X266874Y296761D01*
X266514Y296804D01*
X266155Y296856D01*
X265798Y296917D01*
X265443Y296986D01*
X265089Y297063D01*
X264737Y297149D01*
X264387Y297243D01*
X264039Y297346D01*
X263694Y297456D01*
X263352Y297575D01*
X277421Y296672D02*
X277421Y312928D01*
X277421Y307509D02*
X281936Y307509D01*
X282040Y307507D01*
X282143Y307501D01*
X282247Y307491D01*
X282350Y307477D01*
X282452Y307459D01*
X282553Y307438D01*
X282654Y307412D01*
X282753Y307383D01*
X282852Y307350D01*
X282949Y307313D01*
X283044Y307272D01*
X283138Y307228D01*
X283230Y307180D01*
X283320Y307129D01*
X283409Y307074D01*
X283495Y307016D01*
X283578Y306954D01*
X283660Y306890D01*
X283738Y306822D01*
X283814Y306752D01*
X283888Y306679D01*
X283958Y306602D01*
X284026Y306524D01*
X284090Y306442D01*
X284152Y306359D01*
X284210Y306273D01*
X284265Y306184D01*
X284316Y306094D01*
X284364Y306002D01*
X284408Y305908D01*
X284449Y305813D01*
X284486Y305716D01*
X284519Y305617D01*
X284548Y305518D01*
X284574Y305417D01*
X284595Y305316D01*
X284613Y305214D01*
X284627Y305111D01*
X284637Y305007D01*
X284643Y304904D01*
X284645Y304800D01*
X284646Y304800D02*
X284646Y296672D01*
X292010Y299381D02*
X292010Y307509D01*
X292010Y299381D02*
X292012Y299280D01*
X292018Y299179D01*
X292027Y299078D01*
X292040Y298977D01*
X292057Y298877D01*
X292078Y298778D01*
X292102Y298680D01*
X292130Y298583D01*
X292162Y298486D01*
X292197Y298391D01*
X292236Y298298D01*
X292278Y298206D01*
X292324Y298115D01*
X292373Y298027D01*
X292425Y297940D01*
X292481Y297855D01*
X292539Y297772D01*
X292601Y297692D01*
X292666Y297614D01*
X292733Y297538D01*
X292803Y297465D01*
X292876Y297395D01*
X292952Y297328D01*
X293030Y297263D01*
X293110Y297201D01*
X293193Y297143D01*
X293278Y297087D01*
X293365Y297035D01*
X293453Y296986D01*
X293544Y296940D01*
X293636Y296898D01*
X293729Y296859D01*
X293824Y296824D01*
X293921Y296792D01*
X294018Y296764D01*
X294116Y296740D01*
X294215Y296719D01*
X294315Y296702D01*
X294416Y296689D01*
X294517Y296680D01*
X294618Y296674D01*
X294719Y296672D01*
X299235Y296672D01*
X299235Y307509D01*
X321396Y305703D02*
X324106Y305703D01*
X324106Y296672D01*
X318687Y296672D01*
X318569Y296674D01*
X318451Y296680D01*
X318333Y296689D01*
X318216Y296703D01*
X318099Y296720D01*
X317982Y296741D01*
X317867Y296766D01*
X317752Y296795D01*
X317638Y296828D01*
X317526Y296864D01*
X317415Y296904D01*
X317305Y296947D01*
X317196Y296994D01*
X317089Y297044D01*
X316984Y297099D01*
X316881Y297156D01*
X316780Y297217D01*
X316680Y297281D01*
X316583Y297348D01*
X316488Y297418D01*
X316396Y297492D01*
X316305Y297568D01*
X316218Y297648D01*
X316133Y297730D01*
X316051Y297815D01*
X315971Y297902D01*
X315895Y297993D01*
X315821Y298085D01*
X315751Y298180D01*
X315684Y298277D01*
X315620Y298377D01*
X315559Y298478D01*
X315502Y298581D01*
X315447Y298686D01*
X315397Y298793D01*
X315350Y298902D01*
X315307Y299012D01*
X315267Y299123D01*
X315231Y299235D01*
X315198Y299349D01*
X315169Y299464D01*
X315144Y299579D01*
X315123Y299696D01*
X315106Y299813D01*
X315092Y299930D01*
X315083Y300048D01*
X315077Y300166D01*
X315075Y300284D01*
X315075Y309316D01*
X315077Y309434D01*
X315083Y309552D01*
X315092Y309670D01*
X315106Y309787D01*
X315123Y309904D01*
X315144Y310021D01*
X315169Y310136D01*
X315198Y310251D01*
X315231Y310365D01*
X315267Y310477D01*
X315307Y310588D01*
X315350Y310698D01*
X315397Y310807D01*
X315447Y310914D01*
X315501Y311019D01*
X315559Y311122D01*
X315620Y311223D01*
X315684Y311323D01*
X315751Y311420D01*
X315821Y311515D01*
X315895Y311607D01*
X315971Y311698D01*
X316051Y311785D01*
X316133Y311870D01*
X316218Y311952D01*
X316305Y312032D01*
X316396Y312108D01*
X316488Y312182D01*
X316583Y312252D01*
X316680Y312319D01*
X316780Y312383D01*
X316881Y312444D01*
X316984Y312501D01*
X317089Y312555D01*
X317196Y312606D01*
X317305Y312653D01*
X317415Y312696D01*
X317526Y312736D01*
X317638Y312772D01*
X317752Y312805D01*
X317867Y312834D01*
X317982Y312859D01*
X318099Y312880D01*
X318216Y312897D01*
X318333Y312911D01*
X318451Y312920D01*
X318569Y312926D01*
X318687Y312928D01*
X324106Y312928D01*
X330602Y297575D02*
X330602Y296672D01*
X330602Y297575D02*
X331505Y297575D01*
X331505Y296672D01*
X330602Y296672D01*
X183981Y286258D02*
X178562Y270002D01*
X189399Y270002D02*
X183981Y286258D01*
X188045Y274066D02*
X179917Y274066D01*
X195478Y270002D02*
X195478Y280839D01*
X199994Y280839D01*
X200098Y280837D01*
X200201Y280831D01*
X200305Y280821D01*
X200408Y280807D01*
X200510Y280789D01*
X200611Y280768D01*
X200712Y280742D01*
X200811Y280713D01*
X200910Y280680D01*
X201007Y280643D01*
X201102Y280602D01*
X201196Y280558D01*
X201288Y280510D01*
X201378Y280459D01*
X201467Y280404D01*
X201553Y280346D01*
X201636Y280284D01*
X201718Y280220D01*
X201796Y280152D01*
X201872Y280082D01*
X201946Y280009D01*
X202016Y279932D01*
X202084Y279854D01*
X202148Y279772D01*
X202210Y279689D01*
X202268Y279603D01*
X202323Y279514D01*
X202374Y279424D01*
X202422Y279332D01*
X202466Y279238D01*
X202507Y279143D01*
X202544Y279046D01*
X202577Y278947D01*
X202606Y278848D01*
X202632Y278747D01*
X202653Y278646D01*
X202671Y278544D01*
X202685Y278441D01*
X202695Y278337D01*
X202701Y278234D01*
X202703Y278130D01*
X202703Y270002D01*
X210068Y272711D02*
X210068Y280839D01*
X210068Y272711D02*
X210070Y272610D01*
X210076Y272509D01*
X210085Y272408D01*
X210098Y272307D01*
X210115Y272207D01*
X210136Y272108D01*
X210160Y272010D01*
X210188Y271913D01*
X210220Y271816D01*
X210255Y271721D01*
X210294Y271628D01*
X210336Y271536D01*
X210382Y271445D01*
X210431Y271357D01*
X210483Y271270D01*
X210539Y271185D01*
X210597Y271102D01*
X210659Y271022D01*
X210724Y270944D01*
X210791Y270868D01*
X210861Y270795D01*
X210934Y270725D01*
X211010Y270658D01*
X211088Y270593D01*
X211168Y270531D01*
X211251Y270473D01*
X211336Y270417D01*
X211423Y270365D01*
X211511Y270316D01*
X211602Y270270D01*
X211694Y270228D01*
X211787Y270189D01*
X211882Y270154D01*
X211979Y270122D01*
X212076Y270094D01*
X212174Y270070D01*
X212273Y270049D01*
X212373Y270032D01*
X212474Y270019D01*
X212575Y270010D01*
X212676Y270004D01*
X212777Y270002D01*
X217292Y270002D01*
X217292Y280839D01*
X223615Y280839D02*
X227227Y270002D01*
X230839Y280839D01*
X251959Y279033D02*
X254668Y279033D01*
X254668Y270002D01*
X249250Y270002D01*
X249132Y270004D01*
X249014Y270010D01*
X248896Y270019D01*
X248779Y270033D01*
X248662Y270050D01*
X248545Y270071D01*
X248430Y270096D01*
X248315Y270125D01*
X248201Y270158D01*
X248089Y270194D01*
X247978Y270234D01*
X247868Y270277D01*
X247759Y270324D01*
X247652Y270374D01*
X247547Y270429D01*
X247444Y270486D01*
X247343Y270547D01*
X247243Y270611D01*
X247146Y270678D01*
X247051Y270748D01*
X246959Y270822D01*
X246868Y270898D01*
X246781Y270978D01*
X246696Y271060D01*
X246614Y271145D01*
X246534Y271232D01*
X246458Y271323D01*
X246384Y271415D01*
X246314Y271510D01*
X246247Y271607D01*
X246183Y271707D01*
X246122Y271808D01*
X246065Y271911D01*
X246010Y272016D01*
X245960Y272123D01*
X245913Y272232D01*
X245870Y272342D01*
X245830Y272453D01*
X245794Y272565D01*
X245761Y272679D01*
X245732Y272794D01*
X245707Y272909D01*
X245686Y273026D01*
X245669Y273143D01*
X245655Y273260D01*
X245646Y273378D01*
X245640Y273496D01*
X245638Y273614D01*
X245637Y273614D02*
X245637Y282646D01*
X245638Y282646D02*
X245640Y282764D01*
X245646Y282882D01*
X245655Y283000D01*
X245669Y283117D01*
X245686Y283234D01*
X245707Y283351D01*
X245732Y283466D01*
X245761Y283581D01*
X245794Y283695D01*
X245830Y283807D01*
X245870Y283918D01*
X245913Y284028D01*
X245960Y284137D01*
X246010Y284244D01*
X246064Y284349D01*
X246122Y284452D01*
X246183Y284553D01*
X246247Y284653D01*
X246314Y284750D01*
X246384Y284845D01*
X246458Y284937D01*
X246534Y285028D01*
X246614Y285115D01*
X246696Y285200D01*
X246781Y285282D01*
X246868Y285362D01*
X246959Y285438D01*
X247051Y285512D01*
X247146Y285582D01*
X247243Y285649D01*
X247343Y285713D01*
X247444Y285774D01*
X247547Y285831D01*
X247652Y285885D01*
X247759Y285936D01*
X247868Y285983D01*
X247978Y286026D01*
X248089Y286066D01*
X248201Y286102D01*
X248315Y286135D01*
X248430Y286164D01*
X248545Y286189D01*
X248662Y286210D01*
X248779Y286227D01*
X248896Y286241D01*
X249014Y286250D01*
X249132Y286256D01*
X249250Y286258D01*
X254668Y286258D01*
X261164Y270905D02*
X261164Y270002D01*
X261164Y270905D02*
X262067Y270905D01*
X262067Y270002D01*
X261164Y270002D01*
X187593Y246944D02*
X187591Y246826D01*
X187585Y246708D01*
X187576Y246590D01*
X187562Y246473D01*
X187545Y246356D01*
X187524Y246239D01*
X187499Y246124D01*
X187470Y246009D01*
X187437Y245895D01*
X187401Y245783D01*
X187361Y245672D01*
X187318Y245562D01*
X187271Y245453D01*
X187221Y245346D01*
X187166Y245241D01*
X187109Y245138D01*
X187048Y245037D01*
X186984Y244937D01*
X186917Y244840D01*
X186847Y244745D01*
X186773Y244653D01*
X186697Y244562D01*
X186617Y244475D01*
X186535Y244390D01*
X186450Y244308D01*
X186363Y244228D01*
X186272Y244152D01*
X186180Y244078D01*
X186085Y244008D01*
X185988Y243941D01*
X185888Y243877D01*
X185787Y243816D01*
X185684Y243759D01*
X185579Y243704D01*
X185472Y243654D01*
X185363Y243607D01*
X185253Y243564D01*
X185142Y243524D01*
X185030Y243488D01*
X184916Y243455D01*
X184801Y243426D01*
X184686Y243401D01*
X184569Y243380D01*
X184452Y243363D01*
X184335Y243349D01*
X184217Y243340D01*
X184099Y243334D01*
X183981Y243332D01*
X183798Y243334D01*
X183616Y243341D01*
X183434Y243352D01*
X183252Y243367D01*
X183070Y243387D01*
X182889Y243410D01*
X182709Y243439D01*
X182529Y243471D01*
X182350Y243508D01*
X182173Y243549D01*
X181996Y243595D01*
X181820Y243644D01*
X181646Y243698D01*
X181472Y243756D01*
X181301Y243818D01*
X181131Y243884D01*
X180962Y243955D01*
X180795Y244029D01*
X180630Y244107D01*
X180467Y244189D01*
X180306Y244275D01*
X180147Y244365D01*
X179990Y244459D01*
X179836Y244556D01*
X179684Y244657D01*
X179534Y244762D01*
X179387Y244870D01*
X179243Y244981D01*
X179101Y245096D01*
X178962Y245215D01*
X178826Y245337D01*
X178693Y245462D01*
X178563Y245590D01*
X179014Y255976D02*
X179016Y256094D01*
X179022Y256212D01*
X179031Y256330D01*
X179045Y256447D01*
X179062Y256564D01*
X179083Y256681D01*
X179108Y256796D01*
X179137Y256911D01*
X179170Y257025D01*
X179206Y257137D01*
X179246Y257248D01*
X179289Y257358D01*
X179336Y257467D01*
X179386Y257574D01*
X179441Y257679D01*
X179498Y257782D01*
X179559Y257883D01*
X179623Y257983D01*
X179690Y258080D01*
X179760Y258175D01*
X179834Y258267D01*
X179910Y258358D01*
X179990Y258445D01*
X180072Y258530D01*
X180157Y258612D01*
X180244Y258692D01*
X180335Y258768D01*
X180427Y258842D01*
X180522Y258912D01*
X180619Y258979D01*
X180719Y259043D01*
X180820Y259104D01*
X180923Y259162D01*
X181028Y259216D01*
X181135Y259266D01*
X181244Y259313D01*
X181354Y259357D01*
X181465Y259396D01*
X181578Y259432D01*
X181691Y259465D01*
X181806Y259494D01*
X181921Y259519D01*
X182038Y259540D01*
X182155Y259557D01*
X182272Y259571D01*
X182390Y259580D01*
X182508Y259586D01*
X182626Y259588D01*
X182787Y259586D01*
X182949Y259580D01*
X183110Y259571D01*
X183271Y259557D01*
X183431Y259540D01*
X183591Y259519D01*
X183751Y259494D01*
X183910Y259465D01*
X184068Y259433D01*
X184225Y259397D01*
X184381Y259357D01*
X184537Y259313D01*
X184691Y259265D01*
X184844Y259214D01*
X184996Y259160D01*
X185147Y259101D01*
X185296Y259040D01*
X185443Y258974D01*
X185589Y258905D01*
X185734Y258833D01*
X185876Y258757D01*
X186017Y258678D01*
X186156Y258596D01*
X186292Y258510D01*
X186427Y258421D01*
X186560Y258329D01*
X186690Y258233D01*
X180819Y252815D02*
X180718Y252877D01*
X180618Y252942D01*
X180521Y253011D01*
X180426Y253083D01*
X180333Y253157D01*
X180243Y253235D01*
X180155Y253316D01*
X180070Y253399D01*
X179988Y253485D01*
X179909Y253574D01*
X179832Y253665D01*
X179759Y253759D01*
X179688Y253855D01*
X179621Y253953D01*
X179557Y254053D01*
X179496Y254156D01*
X179439Y254260D01*
X179385Y254366D01*
X179335Y254474D01*
X179288Y254583D01*
X179244Y254694D01*
X179204Y254806D01*
X179168Y254920D01*
X179136Y255034D01*
X179107Y255150D01*
X179082Y255266D01*
X179061Y255383D01*
X179044Y255501D01*
X179030Y255619D01*
X179021Y255738D01*
X179015Y255857D01*
X179013Y255976D01*
X185787Y250105D02*
X185888Y250043D01*
X185988Y249978D01*
X186085Y249909D01*
X186180Y249837D01*
X186273Y249763D01*
X186363Y249685D01*
X186451Y249604D01*
X186536Y249521D01*
X186618Y249435D01*
X186697Y249346D01*
X186774Y249255D01*
X186847Y249161D01*
X186918Y249065D01*
X186985Y248967D01*
X187049Y248867D01*
X187110Y248764D01*
X187167Y248660D01*
X187221Y248554D01*
X187271Y248446D01*
X187318Y248337D01*
X187362Y248226D01*
X187402Y248114D01*
X187438Y248000D01*
X187470Y247886D01*
X187499Y247770D01*
X187524Y247654D01*
X187545Y247537D01*
X187562Y247419D01*
X187576Y247301D01*
X187585Y247182D01*
X187591Y247063D01*
X187593Y246944D01*
X185787Y250105D02*
X180820Y252815D01*
X192236Y254169D02*
X197655Y254169D01*
X194042Y259588D02*
X194042Y246041D01*
X194044Y245940D01*
X194050Y245839D01*
X194059Y245738D01*
X194072Y245637D01*
X194089Y245537D01*
X194110Y245438D01*
X194134Y245340D01*
X194162Y245243D01*
X194194Y245146D01*
X194229Y245051D01*
X194268Y244958D01*
X194310Y244866D01*
X194356Y244775D01*
X194405Y244687D01*
X194457Y244600D01*
X194513Y244515D01*
X194571Y244432D01*
X194633Y244352D01*
X194698Y244274D01*
X194765Y244198D01*
X194835Y244125D01*
X194908Y244055D01*
X194984Y243988D01*
X195062Y243923D01*
X195142Y243861D01*
X195225Y243803D01*
X195310Y243747D01*
X195397Y243695D01*
X195485Y243646D01*
X195576Y243600D01*
X195668Y243558D01*
X195761Y243519D01*
X195856Y243484D01*
X195953Y243452D01*
X196050Y243424D01*
X196148Y243400D01*
X196247Y243379D01*
X196347Y243362D01*
X196448Y243349D01*
X196549Y243340D01*
X196650Y243334D01*
X196751Y243332D01*
X197655Y243332D01*
X206142Y243332D02*
X210658Y243332D01*
X206142Y243332D02*
X206041Y243334D01*
X205940Y243340D01*
X205839Y243349D01*
X205738Y243362D01*
X205638Y243379D01*
X205539Y243400D01*
X205441Y243424D01*
X205344Y243452D01*
X205247Y243484D01*
X205152Y243519D01*
X205059Y243558D01*
X204967Y243600D01*
X204876Y243646D01*
X204788Y243695D01*
X204701Y243747D01*
X204616Y243803D01*
X204533Y243861D01*
X204453Y243923D01*
X204375Y243988D01*
X204299Y244055D01*
X204226Y244125D01*
X204156Y244198D01*
X204089Y244274D01*
X204024Y244352D01*
X203962Y244432D01*
X203904Y244515D01*
X203848Y244600D01*
X203796Y244687D01*
X203747Y244775D01*
X203701Y244866D01*
X203659Y244958D01*
X203620Y245051D01*
X203585Y245146D01*
X203553Y245243D01*
X203525Y245340D01*
X203501Y245438D01*
X203480Y245537D01*
X203463Y245637D01*
X203450Y245738D01*
X203441Y245839D01*
X203435Y245940D01*
X203433Y246041D01*
X203433Y250557D01*
X203435Y250676D01*
X203441Y250796D01*
X203451Y250915D01*
X203465Y251033D01*
X203482Y251152D01*
X203504Y251269D01*
X203529Y251386D01*
X203559Y251501D01*
X203592Y251616D01*
X203629Y251730D01*
X203669Y251842D01*
X203714Y251953D01*
X203762Y252062D01*
X203813Y252170D01*
X203868Y252276D01*
X203927Y252380D01*
X203989Y252482D01*
X204054Y252582D01*
X204123Y252680D01*
X204195Y252776D01*
X204270Y252869D01*
X204347Y252959D01*
X204428Y253047D01*
X204512Y253132D01*
X204599Y253214D01*
X204688Y253294D01*
X204780Y253370D01*
X204874Y253444D01*
X204971Y253514D01*
X205069Y253581D01*
X205170Y253645D01*
X205274Y253705D01*
X205379Y253762D01*
X205486Y253815D01*
X205594Y253865D01*
X205704Y253911D01*
X205816Y253953D01*
X205929Y253992D01*
X206043Y254027D01*
X206158Y254058D01*
X206275Y254086D01*
X206392Y254109D01*
X206509Y254129D01*
X206628Y254145D01*
X206747Y254157D01*
X206866Y254165D01*
X206985Y254169D01*
X207105Y254169D01*
X207224Y254165D01*
X207343Y254157D01*
X207462Y254145D01*
X207581Y254129D01*
X207698Y254109D01*
X207815Y254086D01*
X207932Y254058D01*
X208047Y254027D01*
X208161Y253992D01*
X208274Y253953D01*
X208386Y253911D01*
X208496Y253865D01*
X208604Y253815D01*
X208711Y253762D01*
X208816Y253705D01*
X208920Y253645D01*
X209021Y253581D01*
X209119Y253514D01*
X209216Y253444D01*
X209310Y253370D01*
X209402Y253294D01*
X209491Y253214D01*
X209578Y253132D01*
X209662Y253047D01*
X209743Y252959D01*
X209820Y252869D01*
X209895Y252776D01*
X209967Y252680D01*
X210036Y252582D01*
X210101Y252482D01*
X210163Y252380D01*
X210222Y252276D01*
X210277Y252170D01*
X210328Y252062D01*
X210376Y251953D01*
X210421Y251842D01*
X210461Y251730D01*
X210498Y251616D01*
X210531Y251501D01*
X210561Y251386D01*
X210586Y251269D01*
X210608Y251152D01*
X210625Y251033D01*
X210639Y250915D01*
X210649Y250796D01*
X210655Y250676D01*
X210657Y250557D01*
X210658Y250557D02*
X210658Y248751D01*
X203433Y248751D01*
X217868Y243332D02*
X217868Y256879D01*
X217870Y256983D01*
X217876Y257086D01*
X217886Y257190D01*
X217900Y257293D01*
X217918Y257395D01*
X217939Y257496D01*
X217965Y257597D01*
X217994Y257696D01*
X218027Y257795D01*
X218064Y257892D01*
X218105Y257987D01*
X218149Y258081D01*
X218197Y258173D01*
X218248Y258263D01*
X218303Y258352D01*
X218361Y258438D01*
X218423Y258521D01*
X218487Y258603D01*
X218555Y258681D01*
X218625Y258757D01*
X218698Y258831D01*
X218775Y258901D01*
X218853Y258969D01*
X218935Y259033D01*
X219018Y259095D01*
X219104Y259153D01*
X219193Y259208D01*
X219283Y259259D01*
X219375Y259307D01*
X219469Y259351D01*
X219564Y259392D01*
X219661Y259429D01*
X219760Y259462D01*
X219859Y259491D01*
X219960Y259517D01*
X220061Y259538D01*
X220163Y259556D01*
X220266Y259570D01*
X220370Y259580D01*
X220473Y259586D01*
X220577Y259588D01*
X221480Y259588D01*
X221480Y254169D02*
X216062Y254169D01*
X228925Y249654D02*
X232989Y249654D01*
X228925Y249654D02*
X228813Y249652D01*
X228702Y249646D01*
X228591Y249636D01*
X228480Y249623D01*
X228370Y249605D01*
X228261Y249583D01*
X228152Y249558D01*
X228044Y249529D01*
X227938Y249496D01*
X227832Y249459D01*
X227728Y249419D01*
X227626Y249375D01*
X227525Y249327D01*
X227426Y249276D01*
X227328Y249221D01*
X227233Y249163D01*
X227140Y249102D01*
X227049Y249037D01*
X226960Y248969D01*
X226874Y248898D01*
X226791Y248825D01*
X226710Y248748D01*
X226631Y248668D01*
X226556Y248586D01*
X226484Y248501D01*
X226414Y248414D01*
X226348Y248324D01*
X226285Y248232D01*
X226225Y248137D01*
X226169Y248041D01*
X226116Y247943D01*
X226067Y247843D01*
X226021Y247741D01*
X225979Y247638D01*
X225940Y247533D01*
X225905Y247427D01*
X225874Y247320D01*
X225847Y247212D01*
X225823Y247103D01*
X225804Y246993D01*
X225788Y246883D01*
X225776Y246772D01*
X225768Y246660D01*
X225764Y246549D01*
X225764Y246437D01*
X225768Y246326D01*
X225776Y246214D01*
X225788Y246103D01*
X225804Y245993D01*
X225823Y245883D01*
X225847Y245774D01*
X225874Y245666D01*
X225905Y245559D01*
X225940Y245453D01*
X225979Y245348D01*
X226021Y245245D01*
X226067Y245143D01*
X226116Y245043D01*
X226169Y244945D01*
X226225Y244849D01*
X226285Y244754D01*
X226348Y244662D01*
X226414Y244572D01*
X226484Y244485D01*
X226556Y244400D01*
X226631Y244318D01*
X226710Y244238D01*
X226791Y244161D01*
X226874Y244088D01*
X226960Y244017D01*
X227049Y243949D01*
X227140Y243884D01*
X227233Y243823D01*
X227328Y243765D01*
X227426Y243710D01*
X227525Y243659D01*
X227626Y243611D01*
X227728Y243567D01*
X227832Y243527D01*
X227938Y243490D01*
X228044Y243457D01*
X228152Y243428D01*
X228261Y243403D01*
X228370Y243381D01*
X228480Y243363D01*
X228591Y243350D01*
X228702Y243340D01*
X228813Y243334D01*
X228925Y243332D01*
X232989Y243332D01*
X232989Y251460D01*
X232987Y251561D01*
X232981Y251662D01*
X232972Y251763D01*
X232959Y251864D01*
X232942Y251964D01*
X232921Y252063D01*
X232897Y252161D01*
X232869Y252258D01*
X232837Y252355D01*
X232802Y252450D01*
X232763Y252543D01*
X232721Y252635D01*
X232675Y252726D01*
X232626Y252815D01*
X232574Y252901D01*
X232518Y252986D01*
X232460Y253069D01*
X232398Y253149D01*
X232333Y253227D01*
X232266Y253303D01*
X232196Y253376D01*
X232123Y253446D01*
X232047Y253513D01*
X231969Y253578D01*
X231889Y253640D01*
X231806Y253698D01*
X231721Y253754D01*
X231635Y253806D01*
X231546Y253855D01*
X231455Y253901D01*
X231363Y253943D01*
X231270Y253982D01*
X231175Y254017D01*
X231078Y254049D01*
X230981Y254077D01*
X230883Y254101D01*
X230784Y254122D01*
X230684Y254139D01*
X230583Y254152D01*
X230482Y254161D01*
X230381Y254167D01*
X230280Y254169D01*
X226668Y254169D01*
X240427Y254169D02*
X240427Y243332D01*
X240427Y254169D02*
X244942Y254169D01*
X245046Y254167D01*
X245149Y254161D01*
X245253Y254151D01*
X245356Y254137D01*
X245458Y254119D01*
X245559Y254098D01*
X245660Y254072D01*
X245759Y254043D01*
X245858Y254010D01*
X245955Y253973D01*
X246050Y253932D01*
X246144Y253888D01*
X246236Y253840D01*
X246326Y253789D01*
X246415Y253734D01*
X246501Y253676D01*
X246584Y253614D01*
X246666Y253550D01*
X246744Y253482D01*
X246820Y253412D01*
X246894Y253339D01*
X246964Y253262D01*
X247032Y253184D01*
X247096Y253102D01*
X247158Y253019D01*
X247216Y252933D01*
X247271Y252844D01*
X247322Y252754D01*
X247370Y252662D01*
X247414Y252568D01*
X247455Y252473D01*
X247492Y252376D01*
X247525Y252277D01*
X247554Y252178D01*
X247580Y252077D01*
X247601Y251976D01*
X247619Y251874D01*
X247633Y251771D01*
X247643Y251667D01*
X247649Y251564D01*
X247651Y251460D01*
X247652Y251460D02*
X247652Y243332D01*
X254460Y243332D02*
X254460Y254169D01*
X254009Y258685D02*
X254009Y259588D01*
X254912Y259588D01*
X254912Y258685D01*
X254009Y258685D01*
X263457Y243332D02*
X267972Y243332D01*
X263457Y243332D02*
X263356Y243334D01*
X263255Y243340D01*
X263154Y243349D01*
X263053Y243362D01*
X262953Y243379D01*
X262854Y243400D01*
X262756Y243424D01*
X262659Y243452D01*
X262562Y243484D01*
X262467Y243519D01*
X262374Y243558D01*
X262282Y243600D01*
X262191Y243646D01*
X262103Y243695D01*
X262016Y243747D01*
X261931Y243803D01*
X261848Y243861D01*
X261768Y243923D01*
X261690Y243988D01*
X261614Y244055D01*
X261541Y244125D01*
X261471Y244198D01*
X261404Y244274D01*
X261339Y244352D01*
X261277Y244432D01*
X261219Y244515D01*
X261163Y244600D01*
X261111Y244687D01*
X261062Y244775D01*
X261016Y244866D01*
X260974Y244958D01*
X260935Y245051D01*
X260900Y245146D01*
X260868Y245243D01*
X260840Y245340D01*
X260816Y245438D01*
X260795Y245537D01*
X260778Y245637D01*
X260765Y245738D01*
X260756Y245839D01*
X260750Y245940D01*
X260748Y246041D01*
X260747Y246041D02*
X260747Y250557D01*
X260748Y250557D02*
X260750Y250676D01*
X260756Y250796D01*
X260766Y250915D01*
X260780Y251033D01*
X260797Y251152D01*
X260819Y251269D01*
X260844Y251386D01*
X260874Y251501D01*
X260907Y251616D01*
X260944Y251730D01*
X260984Y251842D01*
X261029Y251953D01*
X261077Y252062D01*
X261128Y252170D01*
X261183Y252276D01*
X261242Y252380D01*
X261304Y252482D01*
X261369Y252582D01*
X261438Y252680D01*
X261510Y252776D01*
X261585Y252869D01*
X261662Y252959D01*
X261743Y253047D01*
X261827Y253132D01*
X261914Y253214D01*
X262003Y253294D01*
X262095Y253370D01*
X262189Y253444D01*
X262286Y253514D01*
X262384Y253581D01*
X262485Y253645D01*
X262589Y253705D01*
X262694Y253762D01*
X262801Y253815D01*
X262909Y253865D01*
X263019Y253911D01*
X263131Y253953D01*
X263244Y253992D01*
X263358Y254027D01*
X263473Y254058D01*
X263590Y254086D01*
X263707Y254109D01*
X263824Y254129D01*
X263943Y254145D01*
X264062Y254157D01*
X264181Y254165D01*
X264300Y254169D01*
X264420Y254169D01*
X264539Y254165D01*
X264658Y254157D01*
X264777Y254145D01*
X264896Y254129D01*
X265013Y254109D01*
X265130Y254086D01*
X265247Y254058D01*
X265362Y254027D01*
X265476Y253992D01*
X265589Y253953D01*
X265701Y253911D01*
X265811Y253865D01*
X265919Y253815D01*
X266026Y253762D01*
X266131Y253705D01*
X266235Y253645D01*
X266336Y253581D01*
X266434Y253514D01*
X266531Y253444D01*
X266625Y253370D01*
X266717Y253294D01*
X266806Y253214D01*
X266893Y253132D01*
X266977Y253047D01*
X267058Y252959D01*
X267135Y252869D01*
X267210Y252776D01*
X267282Y252680D01*
X267351Y252582D01*
X267416Y252482D01*
X267478Y252380D01*
X267537Y252276D01*
X267592Y252170D01*
X267643Y252062D01*
X267691Y251953D01*
X267736Y251842D01*
X267776Y251730D01*
X267813Y251616D01*
X267846Y251501D01*
X267876Y251386D01*
X267901Y251269D01*
X267923Y251152D01*
X267940Y251033D01*
X267954Y250915D01*
X267964Y250796D01*
X267970Y250676D01*
X267972Y250557D01*
X267972Y248751D01*
X260747Y248751D01*
X286244Y243332D02*
X286244Y259588D01*
X290759Y259588D02*
X281728Y259588D01*
X295692Y244235D02*
X295692Y243332D01*
X295692Y244235D02*
X296595Y244235D01*
X296595Y243332D01*
X295692Y243332D01*
X178562Y232918D02*
X178562Y216662D01*
X178562Y232918D02*
X183078Y232918D01*
X183211Y232916D01*
X183343Y232910D01*
X183475Y232900D01*
X183607Y232887D01*
X183739Y232869D01*
X183869Y232848D01*
X184000Y232823D01*
X184129Y232794D01*
X184257Y232761D01*
X184385Y232725D01*
X184511Y232685D01*
X184636Y232641D01*
X184760Y232593D01*
X184882Y232542D01*
X185003Y232487D01*
X185122Y232429D01*
X185240Y232367D01*
X185355Y232302D01*
X185469Y232233D01*
X185580Y232162D01*
X185689Y232086D01*
X185796Y232008D01*
X185901Y231927D01*
X186003Y231842D01*
X186103Y231755D01*
X186200Y231665D01*
X186295Y231572D01*
X186386Y231476D01*
X186475Y231378D01*
X186561Y231277D01*
X186644Y231173D01*
X186724Y231067D01*
X186800Y230959D01*
X186874Y230849D01*
X186944Y230736D01*
X187011Y230622D01*
X187074Y230505D01*
X187134Y230387D01*
X187191Y230267D01*
X187244Y230145D01*
X187293Y230022D01*
X187339Y229898D01*
X187381Y229772D01*
X187419Y229645D01*
X187454Y229517D01*
X187485Y229388D01*
X187512Y229259D01*
X187535Y229128D01*
X187555Y228997D01*
X187570Y228865D01*
X187582Y228733D01*
X187590Y228601D01*
X187594Y228468D01*
X187594Y228336D01*
X187590Y228203D01*
X187582Y228071D01*
X187570Y227939D01*
X187555Y227807D01*
X187535Y227676D01*
X187512Y227545D01*
X187485Y227416D01*
X187454Y227287D01*
X187419Y227159D01*
X187381Y227032D01*
X187339Y226906D01*
X187293Y226782D01*
X187244Y226659D01*
X187191Y226537D01*
X187134Y226417D01*
X187074Y226299D01*
X187011Y226182D01*
X186944Y226068D01*
X186874Y225955D01*
X186800Y225845D01*
X186724Y225737D01*
X186644Y225631D01*
X186561Y225527D01*
X186475Y225426D01*
X186386Y225328D01*
X186295Y225232D01*
X186200Y225139D01*
X186103Y225049D01*
X186003Y224962D01*
X185901Y224877D01*
X185796Y224796D01*
X185689Y224718D01*
X185580Y224642D01*
X185469Y224571D01*
X185355Y224502D01*
X185240Y224437D01*
X185122Y224375D01*
X185003Y224317D01*
X184882Y224262D01*
X184760Y224211D01*
X184636Y224163D01*
X184511Y224119D01*
X184385Y224079D01*
X184257Y224043D01*
X184129Y224010D01*
X184000Y223981D01*
X183869Y223956D01*
X183739Y223935D01*
X183607Y223917D01*
X183475Y223904D01*
X183343Y223894D01*
X183211Y223888D01*
X183078Y223886D01*
X183078Y223887D02*
X178562Y223887D01*
X193843Y227499D02*
X193843Y219371D01*
X193844Y219371D02*
X193846Y219270D01*
X193852Y219169D01*
X193861Y219068D01*
X193874Y218967D01*
X193891Y218867D01*
X193912Y218768D01*
X193936Y218670D01*
X193964Y218573D01*
X193996Y218476D01*
X194031Y218381D01*
X194070Y218288D01*
X194112Y218196D01*
X194158Y218105D01*
X194207Y218017D01*
X194259Y217930D01*
X194315Y217845D01*
X194373Y217762D01*
X194435Y217682D01*
X194500Y217604D01*
X194567Y217528D01*
X194637Y217455D01*
X194710Y217385D01*
X194786Y217318D01*
X194864Y217253D01*
X194944Y217191D01*
X195027Y217133D01*
X195112Y217077D01*
X195199Y217025D01*
X195287Y216976D01*
X195378Y216930D01*
X195470Y216888D01*
X195563Y216849D01*
X195658Y216814D01*
X195755Y216782D01*
X195852Y216754D01*
X195950Y216730D01*
X196049Y216709D01*
X196149Y216692D01*
X196250Y216679D01*
X196351Y216670D01*
X196452Y216664D01*
X196553Y216662D01*
X201068Y216662D01*
X201068Y227499D01*
X208148Y232918D02*
X208148Y219371D01*
X208149Y219371D02*
X208151Y219270D01*
X208157Y219169D01*
X208166Y219068D01*
X208179Y218967D01*
X208196Y218867D01*
X208217Y218768D01*
X208241Y218670D01*
X208269Y218573D01*
X208301Y218476D01*
X208336Y218381D01*
X208375Y218288D01*
X208417Y218196D01*
X208463Y218105D01*
X208512Y218017D01*
X208564Y217930D01*
X208620Y217845D01*
X208678Y217762D01*
X208740Y217682D01*
X208805Y217604D01*
X208872Y217528D01*
X208942Y217455D01*
X209015Y217385D01*
X209091Y217318D01*
X209169Y217253D01*
X209249Y217191D01*
X209332Y217133D01*
X209417Y217077D01*
X209504Y217025D01*
X209592Y216976D01*
X209683Y216930D01*
X209775Y216888D01*
X209868Y216849D01*
X209963Y216814D01*
X210060Y216782D01*
X210157Y216754D01*
X210255Y216730D01*
X210354Y216709D01*
X210454Y216692D01*
X210555Y216679D01*
X210656Y216670D01*
X210757Y216664D01*
X210858Y216662D01*
X216938Y216662D02*
X216938Y232918D01*
X224163Y227499D02*
X216938Y222081D01*
X220099Y224338D02*
X224163Y216662D01*
X229760Y216662D02*
X229760Y227499D01*
X229309Y232015D02*
X229309Y232918D01*
X230212Y232918D01*
X230212Y232015D01*
X229309Y232015D01*
X234750Y227499D02*
X240169Y227499D01*
X236557Y232918D02*
X236557Y219371D01*
X236559Y219270D01*
X236565Y219169D01*
X236574Y219068D01*
X236587Y218967D01*
X236604Y218867D01*
X236625Y218768D01*
X236649Y218670D01*
X236677Y218573D01*
X236709Y218476D01*
X236744Y218381D01*
X236783Y218288D01*
X236825Y218196D01*
X236871Y218105D01*
X236920Y218017D01*
X236972Y217930D01*
X237028Y217845D01*
X237086Y217762D01*
X237148Y217682D01*
X237213Y217604D01*
X237280Y217528D01*
X237350Y217455D01*
X237423Y217385D01*
X237499Y217318D01*
X237577Y217253D01*
X237657Y217191D01*
X237740Y217133D01*
X237825Y217077D01*
X237912Y217025D01*
X238000Y216976D01*
X238091Y216930D01*
X238183Y216888D01*
X238276Y216849D01*
X238371Y216814D01*
X238468Y216782D01*
X238565Y216754D01*
X238663Y216730D01*
X238762Y216709D01*
X238862Y216692D01*
X238963Y216679D01*
X239064Y216670D01*
X239165Y216664D01*
X239266Y216662D01*
X240169Y216662D01*
X255083Y216662D02*
X255083Y232918D01*
X260502Y223887D01*
X265920Y232918D01*
X265920Y216662D01*
X272555Y216662D02*
X272555Y217565D01*
X273458Y217565D01*
X273458Y216662D01*
X272555Y216662D01*
D11*
X517208Y639590D02*
X525646Y639590D01*
X525646Y639589D02*
X525759Y639591D01*
X525872Y639597D01*
X525985Y639607D01*
X526098Y639621D01*
X526210Y639638D01*
X526321Y639660D01*
X526431Y639685D01*
X526541Y639715D01*
X526649Y639748D01*
X526756Y639785D01*
X526862Y639825D01*
X526966Y639870D01*
X527069Y639918D01*
X527170Y639969D01*
X527269Y640024D01*
X527366Y640082D01*
X527461Y640144D01*
X527554Y640209D01*
X527644Y640277D01*
X527732Y640348D01*
X527818Y640423D01*
X527901Y640500D01*
X527981Y640580D01*
X528058Y640663D01*
X528133Y640749D01*
X528204Y640837D01*
X528272Y640927D01*
X528337Y641020D01*
X528399Y641115D01*
X528457Y641212D01*
X528512Y641311D01*
X528563Y641412D01*
X528611Y641515D01*
X528656Y641619D01*
X528696Y641725D01*
X528733Y641832D01*
X528766Y641940D01*
X528796Y642050D01*
X528821Y642160D01*
X528843Y642271D01*
X528860Y642383D01*
X528874Y642496D01*
X528884Y642609D01*
X528890Y642722D01*
X528892Y642835D01*
X528890Y642948D01*
X528884Y643061D01*
X528874Y643174D01*
X528860Y643287D01*
X528843Y643399D01*
X528821Y643510D01*
X528796Y643620D01*
X528766Y643730D01*
X528733Y643838D01*
X528696Y643945D01*
X528656Y644051D01*
X528611Y644155D01*
X528563Y644258D01*
X528512Y644359D01*
X528457Y644458D01*
X528399Y644555D01*
X528337Y644650D01*
X528272Y644743D01*
X528204Y644833D01*
X528133Y644921D01*
X528058Y645007D01*
X527981Y645090D01*
X527901Y645170D01*
X527818Y645247D01*
X527732Y645322D01*
X527644Y645393D01*
X527554Y645461D01*
X527461Y645526D01*
X527366Y645588D01*
X527269Y645646D01*
X527170Y645701D01*
X527069Y645752D01*
X526966Y645800D01*
X526862Y645845D01*
X526756Y645885D01*
X526649Y645922D01*
X526541Y645955D01*
X526431Y645985D01*
X526321Y646010D01*
X526210Y646032D01*
X526098Y646049D01*
X525985Y646063D01*
X525872Y646073D01*
X525759Y646079D01*
X525646Y646081D01*
X517208Y646081D01*
X519804Y651401D02*
X517208Y654646D01*
X528892Y654646D01*
X528892Y651401D02*
X528892Y657892D01*
X177038Y114808D02*
X168148Y114808D01*
X168148Y117277D01*
X168150Y117375D01*
X168156Y117473D01*
X168166Y117571D01*
X168179Y117668D01*
X168197Y117765D01*
X168218Y117861D01*
X168243Y117955D01*
X168272Y118049D01*
X168304Y118142D01*
X168341Y118233D01*
X168380Y118323D01*
X168424Y118411D01*
X168471Y118497D01*
X168521Y118582D01*
X168574Y118664D01*
X168631Y118744D01*
X168691Y118822D01*
X168754Y118897D01*
X168820Y118970D01*
X168889Y119040D01*
X168960Y119107D01*
X169034Y119172D01*
X169111Y119233D01*
X169190Y119292D01*
X169271Y119347D01*
X169354Y119399D01*
X169440Y119447D01*
X169527Y119492D01*
X169616Y119534D01*
X169706Y119572D01*
X169798Y119606D01*
X169891Y119637D01*
X169986Y119664D01*
X170081Y119687D01*
X170178Y119707D01*
X170274Y119722D01*
X170372Y119734D01*
X170470Y119742D01*
X170568Y119746D01*
X170666Y119746D01*
X170764Y119742D01*
X170862Y119734D01*
X170960Y119722D01*
X171056Y119707D01*
X171153Y119687D01*
X171248Y119664D01*
X171343Y119637D01*
X171436Y119606D01*
X171528Y119572D01*
X171618Y119534D01*
X171707Y119492D01*
X171794Y119447D01*
X171880Y119399D01*
X171963Y119347D01*
X172044Y119292D01*
X172123Y119233D01*
X172200Y119172D01*
X172274Y119107D01*
X172345Y119040D01*
X172414Y118970D01*
X172480Y118897D01*
X172543Y118822D01*
X172603Y118744D01*
X172660Y118664D01*
X172713Y118582D01*
X172763Y118497D01*
X172810Y118411D01*
X172854Y118323D01*
X172893Y118233D01*
X172930Y118142D01*
X172962Y118049D01*
X172991Y117955D01*
X173016Y117861D01*
X173037Y117765D01*
X173055Y117668D01*
X173068Y117571D01*
X173078Y117473D01*
X173084Y117375D01*
X173086Y117277D01*
X173087Y117277D02*
X173087Y114808D01*
X173087Y117771D02*
X177038Y119747D01*
X170124Y123658D02*
X168148Y126127D01*
X177038Y126127D01*
X177038Y123658D02*
X177038Y128597D01*
X231648Y114808D02*
X240538Y114808D01*
X231648Y114808D02*
X231648Y117277D01*
X231650Y117375D01*
X231656Y117473D01*
X231666Y117571D01*
X231679Y117668D01*
X231697Y117765D01*
X231718Y117861D01*
X231743Y117955D01*
X231772Y118049D01*
X231804Y118142D01*
X231841Y118233D01*
X231880Y118323D01*
X231924Y118411D01*
X231971Y118497D01*
X232021Y118582D01*
X232074Y118664D01*
X232131Y118744D01*
X232191Y118822D01*
X232254Y118897D01*
X232320Y118970D01*
X232389Y119040D01*
X232460Y119107D01*
X232534Y119172D01*
X232611Y119233D01*
X232690Y119292D01*
X232771Y119347D01*
X232854Y119399D01*
X232940Y119447D01*
X233027Y119492D01*
X233116Y119534D01*
X233206Y119572D01*
X233298Y119606D01*
X233391Y119637D01*
X233486Y119664D01*
X233581Y119687D01*
X233678Y119707D01*
X233774Y119722D01*
X233872Y119734D01*
X233970Y119742D01*
X234068Y119746D01*
X234166Y119746D01*
X234264Y119742D01*
X234362Y119734D01*
X234460Y119722D01*
X234556Y119707D01*
X234653Y119687D01*
X234748Y119664D01*
X234843Y119637D01*
X234936Y119606D01*
X235028Y119572D01*
X235118Y119534D01*
X235207Y119492D01*
X235294Y119447D01*
X235380Y119399D01*
X235463Y119347D01*
X235544Y119292D01*
X235623Y119233D01*
X235700Y119172D01*
X235774Y119107D01*
X235845Y119040D01*
X235914Y118970D01*
X235980Y118897D01*
X236043Y118822D01*
X236103Y118744D01*
X236160Y118664D01*
X236213Y118582D01*
X236263Y118497D01*
X236310Y118411D01*
X236354Y118323D01*
X236393Y118233D01*
X236430Y118142D01*
X236462Y118049D01*
X236491Y117955D01*
X236516Y117861D01*
X236537Y117765D01*
X236555Y117668D01*
X236568Y117571D01*
X236578Y117473D01*
X236584Y117375D01*
X236586Y117277D01*
X236587Y117277D02*
X236587Y114808D01*
X236587Y117771D02*
X240538Y119747D01*
X233871Y128597D02*
X233779Y128595D01*
X233687Y128589D01*
X233596Y128580D01*
X233505Y128567D01*
X233415Y128550D01*
X233325Y128529D01*
X233237Y128505D01*
X233149Y128477D01*
X233063Y128445D01*
X232978Y128410D01*
X232895Y128371D01*
X232813Y128329D01*
X232733Y128284D01*
X232655Y128235D01*
X232579Y128183D01*
X232506Y128128D01*
X232434Y128070D01*
X232365Y128010D01*
X232299Y127946D01*
X232235Y127880D01*
X232175Y127811D01*
X232117Y127739D01*
X232062Y127666D01*
X232010Y127590D01*
X231961Y127512D01*
X231916Y127432D01*
X231874Y127350D01*
X231835Y127267D01*
X231800Y127182D01*
X231768Y127096D01*
X231740Y127008D01*
X231716Y126920D01*
X231695Y126830D01*
X231678Y126740D01*
X231665Y126649D01*
X231656Y126558D01*
X231650Y126466D01*
X231648Y126374D01*
X231650Y126268D01*
X231656Y126163D01*
X231666Y126058D01*
X231679Y125953D01*
X231697Y125849D01*
X231718Y125746D01*
X231743Y125643D01*
X231772Y125541D01*
X231805Y125441D01*
X231841Y125342D01*
X231881Y125244D01*
X231925Y125148D01*
X231972Y125053D01*
X232022Y124961D01*
X232076Y124870D01*
X232134Y124781D01*
X232194Y124695D01*
X232258Y124611D01*
X232324Y124529D01*
X232394Y124449D01*
X232467Y124373D01*
X232542Y124299D01*
X232620Y124228D01*
X232701Y124160D01*
X232784Y124094D01*
X232870Y124032D01*
X232957Y123974D01*
X233047Y123918D01*
X233139Y123866D01*
X233233Y123817D01*
X233328Y123772D01*
X233425Y123730D01*
X233524Y123692D01*
X233623Y123658D01*
X235600Y127856D02*
X235531Y127925D01*
X235461Y127991D01*
X235387Y128054D01*
X235311Y128113D01*
X235233Y128170D01*
X235153Y128224D01*
X235070Y128274D01*
X234986Y128321D01*
X234899Y128364D01*
X234811Y128404D01*
X234722Y128440D01*
X234631Y128473D01*
X234539Y128502D01*
X234445Y128527D01*
X234351Y128548D01*
X234256Y128566D01*
X234160Y128579D01*
X234064Y128589D01*
X233968Y128595D01*
X233871Y128597D01*
X235599Y127856D02*
X240538Y123658D01*
X240538Y128597D01*
X358648Y114808D02*
X367538Y114808D01*
X358648Y114808D02*
X358648Y117277D01*
X358650Y117375D01*
X358656Y117473D01*
X358666Y117571D01*
X358679Y117668D01*
X358697Y117765D01*
X358718Y117861D01*
X358743Y117955D01*
X358772Y118049D01*
X358804Y118142D01*
X358841Y118233D01*
X358880Y118323D01*
X358924Y118411D01*
X358971Y118497D01*
X359021Y118582D01*
X359074Y118664D01*
X359131Y118744D01*
X359191Y118822D01*
X359254Y118897D01*
X359320Y118970D01*
X359389Y119040D01*
X359460Y119107D01*
X359534Y119172D01*
X359611Y119233D01*
X359690Y119292D01*
X359771Y119347D01*
X359854Y119399D01*
X359940Y119447D01*
X360027Y119492D01*
X360116Y119534D01*
X360206Y119572D01*
X360298Y119606D01*
X360391Y119637D01*
X360486Y119664D01*
X360581Y119687D01*
X360678Y119707D01*
X360774Y119722D01*
X360872Y119734D01*
X360970Y119742D01*
X361068Y119746D01*
X361166Y119746D01*
X361264Y119742D01*
X361362Y119734D01*
X361460Y119722D01*
X361556Y119707D01*
X361653Y119687D01*
X361748Y119664D01*
X361843Y119637D01*
X361936Y119606D01*
X362028Y119572D01*
X362118Y119534D01*
X362207Y119492D01*
X362294Y119447D01*
X362380Y119399D01*
X362463Y119347D01*
X362544Y119292D01*
X362623Y119233D01*
X362700Y119172D01*
X362774Y119107D01*
X362845Y119040D01*
X362914Y118970D01*
X362980Y118897D01*
X363043Y118822D01*
X363103Y118744D01*
X363160Y118664D01*
X363213Y118582D01*
X363263Y118497D01*
X363310Y118411D01*
X363354Y118323D01*
X363393Y118233D01*
X363430Y118142D01*
X363462Y118049D01*
X363491Y117955D01*
X363516Y117861D01*
X363537Y117765D01*
X363555Y117668D01*
X363568Y117571D01*
X363578Y117473D01*
X363584Y117375D01*
X363586Y117277D01*
X363587Y117277D02*
X363587Y114808D01*
X363587Y117771D02*
X367538Y119747D01*
X365562Y123658D02*
X358648Y125633D01*
X365562Y123658D02*
X365562Y128597D01*
X363587Y127115D02*
X367538Y127115D01*
X113538Y114808D02*
X104648Y114808D01*
X104648Y117277D01*
X104650Y117375D01*
X104656Y117473D01*
X104666Y117571D01*
X104679Y117668D01*
X104697Y117765D01*
X104718Y117861D01*
X104743Y117955D01*
X104772Y118049D01*
X104804Y118142D01*
X104841Y118233D01*
X104880Y118323D01*
X104924Y118411D01*
X104971Y118497D01*
X105021Y118582D01*
X105074Y118664D01*
X105131Y118744D01*
X105191Y118822D01*
X105254Y118897D01*
X105320Y118970D01*
X105389Y119040D01*
X105460Y119107D01*
X105534Y119172D01*
X105611Y119233D01*
X105690Y119292D01*
X105771Y119347D01*
X105854Y119399D01*
X105940Y119447D01*
X106027Y119492D01*
X106116Y119534D01*
X106206Y119572D01*
X106298Y119606D01*
X106391Y119637D01*
X106486Y119664D01*
X106581Y119687D01*
X106678Y119707D01*
X106774Y119722D01*
X106872Y119734D01*
X106970Y119742D01*
X107068Y119746D01*
X107166Y119746D01*
X107264Y119742D01*
X107362Y119734D01*
X107460Y119722D01*
X107556Y119707D01*
X107653Y119687D01*
X107748Y119664D01*
X107843Y119637D01*
X107936Y119606D01*
X108028Y119572D01*
X108118Y119534D01*
X108207Y119492D01*
X108294Y119447D01*
X108380Y119399D01*
X108463Y119347D01*
X108544Y119292D01*
X108623Y119233D01*
X108700Y119172D01*
X108774Y119107D01*
X108845Y119040D01*
X108914Y118970D01*
X108980Y118897D01*
X109043Y118822D01*
X109103Y118744D01*
X109160Y118664D01*
X109213Y118582D01*
X109263Y118497D01*
X109310Y118411D01*
X109354Y118323D01*
X109393Y118233D01*
X109430Y118142D01*
X109462Y118049D01*
X109491Y117955D01*
X109516Y117861D01*
X109537Y117765D01*
X109555Y117668D01*
X109568Y117571D01*
X109578Y117473D01*
X109584Y117375D01*
X109586Y117277D01*
X109587Y117277D02*
X109587Y114808D01*
X109587Y117771D02*
X113538Y119747D01*
X113538Y123658D02*
X113538Y126621D01*
X113536Y126710D01*
X113530Y126798D01*
X113520Y126886D01*
X113506Y126974D01*
X113488Y127061D01*
X113467Y127147D01*
X113441Y127232D01*
X113412Y127315D01*
X113379Y127398D01*
X113342Y127478D01*
X113302Y127557D01*
X113258Y127634D01*
X113211Y127710D01*
X113161Y127782D01*
X113107Y127853D01*
X113050Y127921D01*
X112990Y127987D01*
X112928Y128049D01*
X112862Y128109D01*
X112794Y128166D01*
X112723Y128220D01*
X112651Y128270D01*
X112576Y128317D01*
X112498Y128361D01*
X112419Y128401D01*
X112339Y128438D01*
X112256Y128471D01*
X112173Y128500D01*
X112088Y128526D01*
X112002Y128547D01*
X111915Y128565D01*
X111827Y128579D01*
X111739Y128589D01*
X111651Y128595D01*
X111562Y128597D01*
X110575Y128597D01*
X110489Y128595D01*
X110403Y128589D01*
X110317Y128580D01*
X110232Y128567D01*
X110147Y128550D01*
X110064Y128530D01*
X109981Y128506D01*
X109899Y128478D01*
X109819Y128447D01*
X109740Y128412D01*
X109663Y128374D01*
X109587Y128332D01*
X109513Y128288D01*
X109442Y128240D01*
X109372Y128189D01*
X109305Y128135D01*
X109240Y128078D01*
X109178Y128018D01*
X109118Y127956D01*
X109061Y127891D01*
X109007Y127824D01*
X108956Y127754D01*
X108908Y127683D01*
X108864Y127609D01*
X108822Y127533D01*
X108784Y127456D01*
X108749Y127377D01*
X108718Y127297D01*
X108690Y127215D01*
X108666Y127132D01*
X108646Y127049D01*
X108629Y126964D01*
X108616Y126879D01*
X108607Y126793D01*
X108601Y126707D01*
X108599Y126621D01*
X108599Y123658D01*
X104648Y123658D01*
X104648Y128597D01*
X295148Y114808D02*
X304038Y114808D01*
X295148Y114808D02*
X295148Y117277D01*
X295150Y117375D01*
X295156Y117473D01*
X295166Y117571D01*
X295179Y117668D01*
X295197Y117765D01*
X295218Y117861D01*
X295243Y117955D01*
X295272Y118049D01*
X295304Y118142D01*
X295341Y118233D01*
X295380Y118323D01*
X295424Y118411D01*
X295471Y118497D01*
X295521Y118582D01*
X295574Y118664D01*
X295631Y118744D01*
X295691Y118822D01*
X295754Y118897D01*
X295820Y118970D01*
X295889Y119040D01*
X295960Y119107D01*
X296034Y119172D01*
X296111Y119233D01*
X296190Y119292D01*
X296271Y119347D01*
X296354Y119399D01*
X296440Y119447D01*
X296527Y119492D01*
X296616Y119534D01*
X296706Y119572D01*
X296798Y119606D01*
X296891Y119637D01*
X296986Y119664D01*
X297081Y119687D01*
X297178Y119707D01*
X297274Y119722D01*
X297372Y119734D01*
X297470Y119742D01*
X297568Y119746D01*
X297666Y119746D01*
X297764Y119742D01*
X297862Y119734D01*
X297960Y119722D01*
X298056Y119707D01*
X298153Y119687D01*
X298248Y119664D01*
X298343Y119637D01*
X298436Y119606D01*
X298528Y119572D01*
X298618Y119534D01*
X298707Y119492D01*
X298794Y119447D01*
X298880Y119399D01*
X298963Y119347D01*
X299044Y119292D01*
X299123Y119233D01*
X299200Y119172D01*
X299274Y119107D01*
X299345Y119040D01*
X299414Y118970D01*
X299480Y118897D01*
X299543Y118822D01*
X299603Y118744D01*
X299660Y118664D01*
X299713Y118582D01*
X299763Y118497D01*
X299810Y118411D01*
X299854Y118323D01*
X299893Y118233D01*
X299930Y118142D01*
X299962Y118049D01*
X299991Y117955D01*
X300016Y117861D01*
X300037Y117765D01*
X300055Y117668D01*
X300068Y117571D01*
X300078Y117473D01*
X300084Y117375D01*
X300086Y117277D01*
X300087Y117277D02*
X300087Y114808D01*
X300087Y117771D02*
X304038Y119747D01*
X304038Y123658D02*
X304038Y126127D01*
X304036Y126225D01*
X304030Y126323D01*
X304020Y126421D01*
X304007Y126518D01*
X303989Y126615D01*
X303968Y126711D01*
X303943Y126805D01*
X303914Y126899D01*
X303882Y126992D01*
X303845Y127083D01*
X303806Y127173D01*
X303762Y127261D01*
X303715Y127347D01*
X303665Y127432D01*
X303612Y127514D01*
X303555Y127594D01*
X303495Y127672D01*
X303432Y127747D01*
X303366Y127820D01*
X303297Y127890D01*
X303226Y127957D01*
X303152Y128022D01*
X303075Y128083D01*
X302996Y128142D01*
X302915Y128197D01*
X302832Y128249D01*
X302746Y128297D01*
X302659Y128342D01*
X302570Y128384D01*
X302480Y128422D01*
X302388Y128456D01*
X302295Y128487D01*
X302200Y128514D01*
X302105Y128537D01*
X302008Y128557D01*
X301912Y128572D01*
X301814Y128584D01*
X301716Y128592D01*
X301618Y128596D01*
X301520Y128596D01*
X301422Y128592D01*
X301324Y128584D01*
X301226Y128572D01*
X301130Y128557D01*
X301033Y128537D01*
X300938Y128514D01*
X300843Y128487D01*
X300750Y128456D01*
X300658Y128422D01*
X300568Y128384D01*
X300479Y128342D01*
X300392Y128297D01*
X300306Y128249D01*
X300223Y128197D01*
X300142Y128142D01*
X300063Y128083D01*
X299986Y128022D01*
X299912Y127957D01*
X299841Y127890D01*
X299772Y127820D01*
X299706Y127747D01*
X299643Y127672D01*
X299583Y127594D01*
X299526Y127514D01*
X299473Y127432D01*
X299423Y127347D01*
X299376Y127261D01*
X299332Y127173D01*
X299293Y127083D01*
X299256Y126992D01*
X299224Y126899D01*
X299195Y126805D01*
X299170Y126711D01*
X299149Y126615D01*
X299131Y126518D01*
X299118Y126421D01*
X299108Y126323D01*
X299102Y126225D01*
X299100Y126127D01*
X295148Y126621D02*
X295148Y123658D01*
X295148Y126621D02*
X295150Y126708D01*
X295156Y126796D01*
X295165Y126883D01*
X295179Y126969D01*
X295196Y127055D01*
X295217Y127139D01*
X295242Y127223D01*
X295271Y127306D01*
X295303Y127387D01*
X295338Y127467D01*
X295377Y127545D01*
X295420Y127622D01*
X295466Y127696D01*
X295515Y127768D01*
X295567Y127838D01*
X295623Y127906D01*
X295681Y127971D01*
X295742Y128034D01*
X295806Y128093D01*
X295873Y128150D01*
X295941Y128204D01*
X296013Y128255D01*
X296086Y128302D01*
X296161Y128347D01*
X296239Y128388D01*
X296318Y128425D01*
X296398Y128459D01*
X296480Y128489D01*
X296563Y128516D01*
X296648Y128539D01*
X296733Y128558D01*
X296819Y128573D01*
X296906Y128585D01*
X296993Y128593D01*
X297080Y128597D01*
X297168Y128597D01*
X297255Y128593D01*
X297342Y128585D01*
X297429Y128573D01*
X297515Y128558D01*
X297600Y128539D01*
X297685Y128516D01*
X297768Y128489D01*
X297850Y128459D01*
X297930Y128425D01*
X298009Y128388D01*
X298087Y128347D01*
X298162Y128302D01*
X298235Y128255D01*
X298307Y128204D01*
X298375Y128150D01*
X298442Y128093D01*
X298506Y128034D01*
X298567Y127971D01*
X298625Y127906D01*
X298681Y127838D01*
X298733Y127768D01*
X298782Y127696D01*
X298828Y127622D01*
X298871Y127545D01*
X298910Y127467D01*
X298945Y127387D01*
X298977Y127306D01*
X299006Y127223D01*
X299031Y127139D01*
X299052Y127055D01*
X299069Y126969D01*
X299083Y126883D01*
X299092Y126796D01*
X299098Y126708D01*
X299100Y126621D01*
X299099Y126621D02*
X299099Y124646D01*
M02*
